<svg width="161" height="158" viewBox="0 0 161 158" fill="none" xmlns="http://www.w3.org/2000/svg">
<rect x="52" y="24" width="10" height="10" rx="2" fill="#23C975"/>
<rect x="66" y="24" width="10" height="10" rx="2" fill="#24A2A4"/>
<rect x="80" y="24" width="10" height="10" rx="2" fill="#22E850"/>
<rect x="94" y="24" width="10" height="10" rx="2" fill="#24A2A4"/>
<rect x="108" y="24" width="10" height="10" rx="2" fill="#256CE5"/>
<rect x="122" y="24" width="10" height="10" rx="2" fill="#247ECE"/>
<rect x="136" y="24" width="10" height="10" rx="2" fill="#256CE5"/>
<rect x="150" y="24" width="10" height="10" rx="2" fill="#257DD0"/>
<rect x="52" y="38" width="10" height="10" rx="2" fill="#22F343"/>
<rect x="66" y="38" width="10" height="10" rx="2" fill="#23DE5B"/>
<rect x="80" y="38" width="10" height="10" rx="2" fill="#256FE1"/>
<rect x="94" y="38" width="10" height="10" rx="2" fill="#22E850"/>
<rect x="108" y="38" width="10" height="10" rx="2" fill="#2574DB"/>
<rect x="122" y="38" width="10" height="10" rx="2" fill="#24AA9A"/>
<rect x="136" y="38" width="10" height="10" rx="2" fill="#22FF34"/>
<rect x="150" y="38" width="10" height="10" rx="2" fill="#256DE3"/>
<rect x="52" y="52" width="10" height="10" rx="2" fill="#22F047"/>
<rect x="66" y="52" width="10" height="10" rx="2" fill="#23C37D"/>
<rect x="80" y="52" width="10" height="10" rx="2" fill="#249FA7"/>
<rect x="94" y="52" width="10" height="10" rx="2" fill="#247ECE"/>
<rect x="108" y="52" width="10" height="10" rx="2" fill="#24AE95"/>
<rect x="122" y="52" width="10" height="10" rx="2" fill="#24A2A4"/>
<rect x="136" y="52" width="10" height="10" rx="2" fill="#256AE7"/>
<rect x="150" y="52" width="10" height="10" rx="2" fill="#23C975"/>
<rect x="52" y="66" width="10" height="10" rx="2" fill="#23DA61"/>
<rect x="66" y="66" width="10" height="10" rx="2" fill="#22F441"/>
<rect x="80" y="66" width="10" height="10" rx="2" fill="#2574DB"/>
<rect x="94" y="66" width="10" height="10" rx="2" fill="#23CA73"/>
<rect x="108" y="66" width="10" height="10" rx="2" fill="#23D468"/>
<rect x="122" y="66" width="10" height="10" rx="2" fill="#23C777"/>
<rect x="136" y="66" width="10" height="10" rx="2" fill="#23BE82"/>
<rect x="150" y="66" width="10" height="10" rx="2" fill="#22FA3A"/>
<rect x="52" y="80" width="10" height="10" rx="2" fill="#24A5A0"/>
<rect x="66" y="80" width="10" height="10" rx="2" fill="#23CA73"/>
<rect x="80" y="80" width="10" height="10" rx="2" fill="#256CE5"/>
<rect x="94" y="80" width="10" height="10" rx="2" fill="#257AD4"/>
<rect x="108" y="80" width="10" height="10" rx="2" fill="#23B988"/>
<rect x="122" y="80" width="10" height="10" rx="2" fill="#22FF34"/>
<rect x="136" y="80" width="10" height="10" rx="2" fill="#23DB5F"/>
<rect x="150" y="80" width="10" height="10" rx="2" fill="#23B988"/>
<rect x="52" y="94" width="10" height="10" rx="2" fill="#24A5A0"/>
<rect x="66" y="94" width="10" height="10" rx="2" fill="#2493B6"/>
<rect x="80" y="94" width="10" height="10" rx="2" fill="#24AD97"/>
<rect x="94" y="94" width="10" height="10" rx="2" fill="#22F73D"/>
<rect x="108" y="94" width="10" height="10" rx="2" fill="#2567EA"/>
<rect x="122" y="94" width="10" height="10" rx="2" fill="#22E850"/>
<rect x="136" y="94" width="10" height="10" rx="2" fill="#23CF6E"/>
<rect x="150" y="94" width="10" height="10" rx="2" fill="#23D764"/>
<rect x="52" y="108" width="10" height="10" rx="2" fill="#22F441"/>
<rect x="66" y="108" width="10" height="10" rx="2" fill="#23CD70"/>
<rect x="80" y="108" width="10" height="10" rx="2" fill="#24B291"/>
<rect x="94" y="108" width="10" height="10" rx="2" fill="#24A0A5"/>
<rect x="108" y="108" width="10" height="10" rx="2" fill="#22E652"/>
<rect x="122" y="108" width="10" height="10" rx="2" fill="#248EBC"/>
<rect x="136" y="108" width="10" height="10" rx="2" fill="#22E94E"/>
<rect x="150" y="108" width="10" height="10" rx="2" fill="#2575DA"/>
<rect x="52" y="122" width="10" height="10" rx="2" fill="#22E652"/>
<rect x="66" y="122" width="10" height="10" rx="2" fill="#24A79E"/>
<rect x="80" y="122" width="10" height="10" rx="2" fill="#24A4A2"/>
<rect x="94" y="122" width="10" height="10" rx="2" fill="#256FE1"/>
<rect x="108" y="122" width="10" height="10" rx="2" fill="#256AE7"/>
<rect x="122" y="122" width="10" height="10" rx="2" fill="#2497B1"/>
<rect x="136" y="122" width="10" height="10" rx="2" fill="#23D468"/>
<rect x="150" y="122" width="10" height="10" rx="2" fill="#23CD70"/>
<path d="M89.6907 0.984H90.4467V3.81H89.6907V0.984ZM88.5987 1.08H89.3487V3.786H88.5987V1.08ZM87.9027 2.112H88.7907V2.754H87.9027V2.112ZM86.6727 4.014H90.4467V5.514H87.4827V6.192H86.6787V4.938H89.6547V4.632H86.6727V4.014ZM86.6787 5.85H90.6267V6.474H86.6787V5.85ZM85.9047 1.308H88.1007V3.6H85.9047V1.308ZM87.3627 1.908H86.6487V3H87.3627V1.908ZM94.7142 1.296H95.4102V1.698C95.4102 2.904 94.5522 3.972 93.1122 4.254L92.7702 3.594C94.0242 3.378 94.7142 2.496 94.7142 1.698V1.296ZM94.8762 1.296H95.5662V1.698C95.5662 2.514 96.2502 3.378 97.5102 3.594L97.1682 4.254C95.7282 3.972 94.8762 2.922 94.8762 1.698V1.296ZM92.6562 5.208H97.6842V5.856H92.6562V5.208ZM98.2177 1.398H100.762V2.034H98.2177V1.398ZM98.2057 4.218L98.1277 3.57C98.8537 3.57 100.012 3.564 100.846 3.456L100.882 4.038C100.03 4.2 98.9197 4.218 98.2057 4.218ZM98.5597 1.836H99.2797V3.69H98.5597V1.836ZM99.6877 1.836H100.402V3.69H99.6877V1.836ZM102.178 0.978H102.934V4.392H102.178V0.978ZM100.618 2.424H101.47V3.066H100.618V2.424ZM101.128 1.056H101.872V4.368H101.128V1.056ZM99.0337 4.62H102.934V6.534H102.136V5.256H99.0337V4.62ZM104.283 3.84H108.189V4.464H104.283V3.84ZM103.695 5.25H108.723V5.898H103.695V5.25ZM104.283 1.38H108.141V2.022H105.093V4.014H104.283V1.38ZM104.847 2.604H108.015V3.222H104.847V2.604ZM109.215 5.274H114.243V5.922H109.215V5.274ZM111.321 4.224H112.119V5.538H111.321V4.224ZM109.779 1.338H113.679V3.186H110.583V4.122H109.791V2.562H112.887V1.968H109.779V1.338ZM109.791 3.804H113.805V4.446H109.791V3.804ZM115.244 1.488H118.766V2.118H115.244V1.488ZM114.734 5.16H119.756V5.808H114.734V5.16ZM118.346 1.488H119.138V2.148C119.138 2.928 119.138 3.684 118.94 4.824L118.142 4.758C118.346 3.69 118.346 2.898 118.346 2.148V1.488ZM124.226 0.978H124.982V4.254H124.226V0.978ZM123.554 2.28H124.442V2.922H123.554V2.28ZM123.038 1.08H123.782V4.212H123.038V1.08ZM121.22 4.488H124.982V6.474H121.22V4.488ZM124.202 5.112H122.006V5.844H124.202V5.112ZM120.47 3.45H120.854C121.652 3.45 122.168 3.438 122.78 3.324L122.846 3.948C122.216 4.062 121.676 4.074 120.854 4.074H120.47V3.45ZM120.464 1.308H122.57V2.964H121.244V3.93H120.47V2.382H121.802V1.926H120.464V1.308Z" fill="black"/>
<path d="M44.5 24L41.9517 35.8552C36.0501 63.3105 35.9965 91.7009 41.7945 119.178L44.5 132" stroke="black"/>
<path d="M52 140L63.8552 142.548C91.3105 148.45 119.701 148.503 147.178 142.705L160 140" stroke="black"/>
<path d="M0.747305 78V74.904H1.2273V75.408H1.2513C1.3273 75.232 1.4333 75.092 1.5693 74.988C1.7093 74.884 1.8953 74.832 2.1273 74.832C2.4473 74.832 2.6993 74.936 2.8833 75.144C3.0713 75.348 3.1653 75.638 3.1653 76.014V78H2.6853V76.098C2.6853 75.542 2.4513 75.264 1.9833 75.264C1.8873 75.264 1.7933 75.276 1.7013 75.3C1.6133 75.324 1.5333 75.36 1.4613 75.408C1.3893 75.456 1.3313 75.518 1.2873 75.594C1.2473 75.666 1.2273 75.752 1.2273 75.852V78H0.747305ZM3.82746 78.99V78.57H6.85746V78.99H3.82746ZM7.55004 78V74.904H8.03004V75.408H8.05404C8.09004 75.328 8.13004 75.254 8.17404 75.186C8.22204 75.114 8.27804 75.052 8.34204 75C8.41004 74.948 8.48804 74.908 8.57604 74.88C8.66404 74.848 8.76804 74.832 8.88804 74.832C9.09204 74.832 9.28004 74.882 9.45204 74.982C9.62404 75.078 9.75204 75.238 9.83604 75.462H9.84804C9.90404 75.294 10.008 75.148 10.16 75.024C10.316 74.896 10.526 74.832 10.79 74.832C11.106 74.832 11.352 74.936 11.528 75.144C11.708 75.348 11.798 75.638 11.798 76.014V78H11.318V76.098C11.318 75.822 11.264 75.614 11.156 75.474C11.048 75.334 10.876 75.264 10.64 75.264C10.544 75.264 10.452 75.276 10.364 75.3C10.28 75.324 10.204 75.36 10.136 75.408C10.068 75.456 10.014 75.518 9.97404 75.594C9.93404 75.666 9.91404 75.752 9.91404 75.852V78H9.43404V76.098C9.43404 75.822 9.38004 75.614 9.27204 75.474C9.16404 75.334 8.99604 75.264 8.76804 75.264C8.67204 75.264 8.58004 75.276 8.49204 75.3C8.40404 75.324 8.32604 75.36 8.25804 75.408C8.19004 75.456 8.13404 75.518 8.09004 75.594C8.05004 75.666 8.03004 75.752 8.03004 75.852V78H7.55004ZM13.9523 78.072C13.7403 78.072 13.5483 78.034 13.3763 77.958C13.2083 77.882 13.0623 77.774 12.9383 77.634C12.8183 77.49 12.7243 77.32 12.6563 77.124C12.5923 76.924 12.5603 76.7 12.5603 76.452C12.5603 76.208 12.5923 75.986 12.6563 75.786C12.7243 75.586 12.8183 75.416 12.9383 75.276C13.0623 75.132 13.2083 75.022 13.3763 74.946C13.5483 74.87 13.7403 74.832 13.9523 74.832C14.1603 74.832 14.3463 74.87 14.5103 74.946C14.6743 75.022 14.8143 75.128 14.9303 75.264C15.0463 75.396 15.1343 75.554 15.1943 75.738C15.2583 75.922 15.2903 76.124 15.2903 76.344V76.572H13.0643V76.716C13.0643 76.848 13.0843 76.972 13.1243 77.088C13.1683 77.2 13.2283 77.298 13.3043 77.382C13.3843 77.466 13.4803 77.532 13.5923 77.58C13.7083 77.628 13.8383 77.652 13.9823 77.652C14.1783 77.652 14.3483 77.606 14.4923 77.514C14.6403 77.422 14.7543 77.29 14.8343 77.118L15.1763 77.364C15.0763 77.576 14.9203 77.748 14.7083 77.88C14.4963 78.008 14.2443 78.072 13.9523 78.072ZM13.9523 75.234C13.8203 75.234 13.7003 75.258 13.5923 75.306C13.4843 75.35 13.3903 75.414 13.3103 75.498C13.2343 75.582 13.1743 75.682 13.1303 75.798C13.0863 75.91 13.0643 76.034 13.0643 76.17V76.212H14.7743V76.146C14.7743 75.87 14.6983 75.65 14.5463 75.486C14.3983 75.318 14.2003 75.234 13.9523 75.234ZM16.5913 78C16.4233 78 16.2953 77.954 16.2073 77.862C16.1233 77.766 16.0813 77.646 16.0813 77.502V73.56H16.5613V77.58H17.0173V78H16.5913ZM18.6461 78.072C18.3581 78.072 18.1161 78.018 17.9201 77.91C17.7281 77.798 17.5621 77.65 17.4221 77.466L17.7641 77.19C17.8841 77.342 18.0181 77.46 18.1661 77.544C18.3141 77.624 18.4861 77.664 18.6821 77.664C18.8861 77.664 19.0441 77.62 19.1561 77.532C19.2721 77.444 19.3301 77.32 19.3301 77.16C19.3301 77.04 19.2901 76.938 19.2101 76.854C19.1341 76.766 18.9941 76.706 18.7901 76.674L18.5441 76.638C18.4001 76.618 18.2681 76.588 18.1481 76.548C18.0281 76.504 17.9221 76.448 17.8301 76.38C17.7421 76.308 17.6721 76.22 17.6201 76.116C17.5721 76.012 17.5481 75.888 17.5481 75.744C17.5481 75.592 17.5761 75.46 17.6321 75.348C17.6881 75.232 17.7641 75.136 17.8601 75.06C17.9601 74.984 18.0781 74.928 18.2141 74.892C18.3501 74.852 18.4961 74.832 18.6521 74.832C18.9041 74.832 19.1141 74.876 19.2821 74.964C19.4541 75.052 19.6041 75.174 19.7321 75.33L19.4141 75.618C19.3461 75.522 19.2461 75.436 19.1141 75.36C18.9821 75.28 18.8161 75.24 18.6161 75.24C18.4161 75.24 18.2641 75.284 18.1601 75.372C18.0601 75.456 18.0101 75.572 18.0101 75.72C18.0101 75.872 18.0601 75.982 18.1601 76.05C18.2641 76.118 18.4121 76.168 18.6041 76.2L18.8441 76.236C19.1881 76.288 19.4321 76.388 19.5761 76.536C19.7201 76.68 19.7921 76.87 19.7921 77.106C19.7921 77.406 19.6901 77.642 19.4861 77.814C19.2821 77.986 19.0021 78.072 18.6461 78.072ZM22.0459 76.128C22.0459 75.84 22.0739 75.562 22.1299 75.294C22.1859 75.026 22.2619 74.778 22.3579 74.55C22.4579 74.318 22.5739 74.108 22.7059 73.92C22.8379 73.732 22.9799 73.572 23.1319 73.44H23.5879C23.4199 73.592 23.2679 73.764 23.1319 73.956C22.9999 74.148 22.8859 74.352 22.7899 74.568C22.6979 74.784 22.6259 75.004 22.5739 75.228C22.5219 75.452 22.4959 75.668 22.4959 75.876V76.392C22.4959 76.604 22.5219 76.822 22.5739 77.046C22.6259 77.27 22.6999 77.49 22.7959 77.706C22.8919 77.922 23.0059 78.126 23.1379 78.318C23.2739 78.51 23.4239 78.678 23.5879 78.822H23.1319C22.9839 78.698 22.8439 78.542 22.7119 78.354C22.5799 78.166 22.4639 77.956 22.3639 77.724C22.2679 77.492 22.1899 77.242 22.1299 76.974C22.0739 76.702 22.0459 76.42 22.0459 76.128ZM25.3576 78.072C25.1176 78.072 24.9076 78.042 24.7276 77.982C24.5476 77.918 24.3956 77.832 24.2716 77.724C24.1516 77.616 24.0596 77.488 23.9956 77.34C23.9356 77.192 23.9056 77.032 23.9056 76.86C23.9056 76.572 23.9836 76.344 24.1396 76.176C24.2956 76.008 24.4996 75.89 24.7516 75.822V75.774C24.5316 75.698 24.3556 75.576 24.2236 75.408C24.0956 75.236 24.0316 75.03 24.0316 74.79C24.0316 74.47 24.1476 74.216 24.3796 74.028C24.6116 73.836 24.9376 73.74 25.3576 73.74C25.7776 73.74 26.1036 73.836 26.3356 74.028C26.5676 74.216 26.6836 74.47 26.6836 74.79C26.6836 75.03 26.6176 75.236 26.4856 75.408C26.3576 75.576 26.1836 75.698 25.9636 75.774V75.822C26.2156 75.89 26.4196 76.008 26.5756 76.176C26.7316 76.344 26.8096 76.572 26.8096 76.86C26.8096 77.032 26.7776 77.192 26.7136 77.34C26.6536 77.488 26.5616 77.616 26.4376 77.724C26.3176 77.832 26.1676 77.918 25.9876 77.982C25.8076 78.042 25.5976 78.072 25.3576 78.072ZM25.3576 77.634C25.6496 77.634 25.8756 77.57 26.0356 77.442C26.1956 77.31 26.2756 77.124 26.2756 76.884V76.758C26.2756 76.518 26.1956 76.334 26.0356 76.206C25.8756 76.074 25.6496 76.008 25.3576 76.008C25.0656 76.008 24.8396 76.074 24.6796 76.206C24.5196 76.334 24.4396 76.518 24.4396 76.758V76.884C24.4396 77.124 24.5196 77.31 24.6796 77.442C24.8396 77.57 25.0656 77.634 25.3576 77.634ZM25.3576 75.588C25.6216 75.588 25.8216 75.532 25.9576 75.42C26.0936 75.308 26.1616 75.144 26.1616 74.928V74.838C26.1616 74.622 26.0936 74.458 25.9576 74.346C25.8216 74.234 25.6216 74.178 25.3576 74.178C25.0936 74.178 24.8936 74.234 24.7576 74.346C24.6216 74.458 24.5536 74.622 24.5536 74.838V74.928C24.5536 75.144 24.6216 75.308 24.7576 75.42C24.8936 75.532 25.0936 75.588 25.3576 75.588ZM28.9553 78.072C28.4553 78.072 28.0893 77.882 27.8573 77.502C27.6293 77.122 27.5153 76.59 27.5153 75.906C27.5153 75.222 27.6293 74.69 27.8573 74.31C28.0893 73.93 28.4553 73.74 28.9553 73.74C29.4553 73.74 29.8193 73.93 30.0473 74.31C30.2793 74.69 30.3953 75.222 30.3953 75.906C30.3953 76.59 30.2793 77.122 30.0473 77.502C29.8193 77.882 29.4553 78.072 28.9553 78.072ZM28.9553 77.634C29.1193 77.634 29.2593 77.6 29.3753 77.532C29.4913 77.464 29.5853 77.368 29.6573 77.244C29.7293 77.12 29.7813 76.974 29.8133 76.806C29.8493 76.638 29.8673 76.452 29.8673 76.248V75.564C29.8673 75.36 29.8493 75.174 29.8133 75.006C29.7813 74.838 29.7293 74.692 29.6573 74.568C29.5853 74.444 29.4913 74.348 29.3753 74.28C29.2593 74.212 29.1193 74.178 28.9553 74.178C28.7913 74.178 28.6513 74.212 28.5353 74.28C28.4193 74.348 28.3253 74.444 28.2533 74.568C28.1813 74.692 28.1273 74.838 28.0913 75.006C28.0593 75.174 28.0433 75.36 28.0433 75.564V76.248C28.0433 76.452 28.0593 76.638 28.0913 76.806C28.1273 76.974 28.1813 77.12 28.2533 77.244C28.3253 77.368 28.4193 77.464 28.5353 77.532C28.6513 77.6 28.7913 77.634 28.9553 77.634ZM32.2649 76.128C32.2649 76.42 32.2349 76.702 32.1749 76.974C32.1189 77.242 32.0409 77.492 31.9409 77.724C31.8449 77.956 31.7309 78.166 31.5989 78.354C31.4669 78.542 31.3269 78.698 31.1789 78.822H30.7229C30.8869 78.678 31.0349 78.51 31.1669 78.318C31.3029 78.126 31.4189 77.922 31.5149 77.706C31.6109 77.49 31.6849 77.27 31.7369 77.046C31.7889 76.822 31.8149 76.604 31.8149 76.392V75.876C31.8149 75.668 31.7889 75.452 31.7369 75.228C31.6849 75.004 31.6109 74.784 31.5149 74.568C31.4229 74.352 31.3089 74.148 31.1729 73.956C31.0409 73.764 30.8909 73.592 30.7229 73.44H31.1789C31.3309 73.572 31.4729 73.732 31.6049 73.92C31.7369 74.108 31.8509 74.318 31.9469 74.55C32.0469 74.778 32.1249 75.026 32.1809 75.294C32.2369 75.562 32.2649 75.84 32.2649 76.128Z" fill="black"/>
<path d="M60.6303 151.05H61.1043V153.864H60.6303V151.05ZM59.6103 151.158H60.0843V153.828H59.6103V151.158ZM58.7343 152.244H59.7603V152.652H58.7343V152.244ZM57.5283 154.11H61.1043V155.406H58.0383V156.234H57.5403V155.034H60.6183V154.506H57.5283V154.11ZM57.5403 155.994H61.3143V156.396H57.5403V155.994ZM56.7723 151.392H58.8603V153.558H56.7723V151.392ZM58.3983 151.776H57.2343V153.168H58.3983V151.776ZM64.2298 151.416H64.6618V151.83C64.6618 153.012 63.5638 153.93 62.4778 154.176L62.2558 153.762C63.2098 153.582 64.2298 152.754 64.2298 151.83V151.416ZM64.3198 151.416H64.7518V151.83C64.7518 152.76 65.7778 153.582 66.7258 153.762L66.5038 154.176C65.4238 153.93 64.3198 153.018 64.3198 151.83V151.416ZM62.0578 155.328H66.9718V155.736H62.0578V155.328ZM67.6433 151.494H70.1693V151.902H67.6433V151.494ZM67.6073 154.062L67.5533 153.642C68.2793 153.642 69.4433 153.636 70.2953 153.522L70.3133 153.894C69.4493 154.044 68.3213 154.062 67.6073 154.062ZM68.1053 151.77H68.5613V153.714H68.1053V151.77ZM69.2453 151.77H69.7013V153.714H69.2453V151.77ZM71.6873 151.044H72.1613V154.344H71.6873V151.044ZM69.9833 152.496H70.9133V152.91H69.9833V152.496ZM70.6853 151.146H71.1593V154.314H70.6853V151.146ZM68.4713 154.614H72.1613V156.468H71.6693V155.022H68.4713V154.614ZM73.7269 153.966H77.4529V154.368H73.7269V153.966ZM73.0969 155.358H78.0109V155.772H73.0969V155.358ZM73.7269 151.506H77.3929V151.914H74.2309V154.092H73.7269V151.506ZM74.0689 152.718H77.2789V153.114H74.0689V152.718ZM78.6164 155.388H83.5304V155.802H78.6164V155.388ZM80.8124 154.224H81.3104V155.562H80.8124V154.224ZM79.2104 151.446H82.9244V153.09H79.7204V154.176H79.2284V152.688H82.4324V151.848H79.2104V151.446ZM79.2284 153.966H83.0504V154.374H79.2284V153.966ZM84.6639 151.62H88.1559V152.022H84.6639V151.62ZM84.1359 155.262H89.0379V155.676H84.1359V155.262ZM87.8919 151.62H88.3779V152.16C88.3779 152.856 88.3779 153.63 88.1739 154.8L87.6759 154.752C87.8919 153.642 87.8919 152.832 87.8919 152.16V151.62ZM93.7475 151.044H94.2215V154.278H93.7475V151.044ZM92.8715 152.418H93.8975V152.832H92.8715V152.418ZM92.5535 151.146H93.0215V154.212H92.5535V151.146ZM90.6635 154.542H94.2215V156.396H90.6635V154.542ZM93.7415 154.938H91.1495V155.994H93.7415V154.938ZM89.9015 153.642H90.2495C91.0115 153.642 91.5755 153.618 92.2415 153.486L92.2895 153.888C91.6055 154.02 91.0355 154.044 90.2495 154.044H89.9015V153.642ZM89.8895 151.404H91.9295V152.88H90.3815V153.918H89.9015V152.502H91.4495V151.8H89.8895V151.404ZM98.021 151.512H98.429V152.484C98.429 153.732 97.757 154.89 96.869 155.34L96.563 154.932C97.367 154.548 98.021 153.51 98.021 152.484V151.512ZM98.105 151.512H98.513V152.484C98.513 153.474 99.161 154.47 99.965 154.842L99.665 155.238C98.783 154.806 98.105 153.69 98.105 152.484V151.512ZM100.529 151.038H101.027V156.474H100.529V151.038ZM102.533 151.356H104.885V151.758H102.533V151.356ZM104.663 151.356H105.149V151.728C105.149 152.19 105.149 152.796 104.963 153.636L104.477 153.588C104.663 152.772 104.663 152.184 104.663 151.728V151.356ZM104.963 152.346V152.706L102.503 152.886L102.425 152.472L104.963 152.346ZM103.649 153.816H104.147V155.022H103.649V153.816ZM106.055 151.044H106.553V155.214H106.055V151.044ZM102.851 155.94H106.685V156.348H102.851V155.94ZM102.851 154.806H103.349V156.096H102.851V154.806ZM102.149 153.996L102.083 153.582C103.103 153.582 104.441 153.558 105.581 153.432L105.617 153.798C104.465 153.954 103.145 153.99 102.149 153.996ZM104.951 154.284H106.181V154.65H104.951V154.284ZM109.804 151.416H110.236V151.83C110.236 153.012 109.138 153.93 108.052 154.176L107.83 153.762C108.784 153.582 109.804 152.754 109.804 151.83V151.416ZM109.894 151.416H110.326V151.83C110.326 152.76 111.352 153.582 112.3 153.762L112.078 154.176C110.998 153.93 109.894 153.018 109.894 151.83V151.416ZM107.632 155.328H112.546V155.736H107.632V155.328ZM118.512 151.044H119.016V153.81H118.512V151.044ZM116.856 151.308H117.402C117.402 152.694 116.436 153.552 114.84 153.924L114.66 153.516C116.088 153.204 116.856 152.502 116.856 151.56V151.308ZM114.93 151.308H117.192V151.716H114.93V151.308ZM115.506 154.074H119.016V155.394H116.01V156.216H115.518V155.022H118.518V154.47H115.506V154.074ZM115.518 156.018H119.196V156.414H115.518V156.018ZM124.025 151.038H124.523V156.474H124.025V151.038ZM121.661 151.458C122.465 151.458 123.041 152.196 123.041 153.348C123.041 154.506 122.465 155.244 121.661 155.244C120.863 155.244 120.287 154.506 120.287 153.348C120.287 152.196 120.863 151.458 121.661 151.458ZM121.661 151.908C121.133 151.908 120.761 152.472 120.761 153.348C120.761 154.23 121.133 154.806 121.661 154.806C122.195 154.806 122.561 154.23 122.561 153.348C122.561 152.472 122.195 151.908 121.661 151.908ZM127.225 154.128C127.225 153.84 127.253 153.562 127.309 153.294C127.365 153.026 127.441 152.778 127.537 152.55C127.637 152.318 127.753 152.108 127.885 151.92C128.017 151.732 128.159 151.572 128.311 151.44H128.767C128.599 151.592 128.447 151.764 128.311 151.956C128.179 152.148 128.065 152.352 127.969 152.568C127.877 152.784 127.805 153.004 127.753 153.228C127.701 153.452 127.675 153.668 127.675 153.876V154.392C127.675 154.604 127.701 154.822 127.753 155.046C127.805 155.27 127.879 155.49 127.975 155.706C128.071 155.922 128.185 156.126 128.317 156.318C128.453 156.51 128.603 156.678 128.767 156.822H128.311C128.163 156.698 128.023 156.542 127.891 156.354C127.759 156.166 127.643 155.956 127.543 155.724C127.447 155.492 127.369 155.242 127.309 154.974C127.253 154.702 127.225 154.42 127.225 154.128ZM131.484 151.164C132.654 151.164 133.392 151.548 133.392 152.19C133.392 152.832 132.654 153.21 131.484 153.21C130.308 153.21 129.576 152.832 129.576 152.19C129.576 151.548 130.308 151.164 131.484 151.164ZM131.484 151.56C130.62 151.56 130.086 151.788 130.086 152.19C130.086 152.586 130.62 152.82 131.484 152.82C132.342 152.82 132.882 152.586 132.882 152.19C132.882 151.788 132.342 151.56 131.484 151.56ZM129.63 154.608H133.332V156.396H129.63V154.608ZM132.846 155.01H130.122V155.994H132.846V155.01ZM129.03 153.678H133.932V154.08H129.03V153.678ZM135.918 151.35H136.332V151.908C136.332 152.958 135.738 153.816 134.808 154.164L134.55 153.756C135.378 153.462 135.918 152.736 135.918 151.908V151.35ZM136.008 151.35H136.416V151.89C136.416 152.658 136.944 153.336 137.736 153.612L137.466 154.002C136.59 153.672 136.008 152.874 136.008 151.89V151.35ZM138.516 151.044H139.014V154.254H138.516V151.044ZM137.232 154.41C138.348 154.41 139.038 154.788 139.038 155.436C139.038 156.084 138.348 156.456 137.232 156.456C136.11 156.456 135.42 156.084 135.42 155.436C135.42 154.788 136.11 154.41 137.232 154.41ZM137.232 154.806C136.416 154.806 135.918 155.04 135.918 155.436C135.918 155.832 136.416 156.066 137.232 156.066C138.048 156.066 138.546 155.832 138.546 155.436C138.546 155.04 138.048 154.806 137.232 154.806ZM137.34 152.19H138.624V152.604H137.34V152.19ZM141.833 151.434C142.679 151.434 143.285 151.956 143.285 152.712C143.285 153.474 142.679 153.996 141.833 153.996C140.987 153.996 140.375 153.474 140.375 152.712C140.375 151.956 140.987 151.434 141.833 151.434ZM141.833 151.866C141.269 151.866 140.861 152.208 140.861 152.712C140.861 153.216 141.269 153.564 141.833 153.564C142.391 153.564 142.799 153.216 142.799 152.712C142.799 152.208 142.391 151.866 141.833 151.866ZM143.993 151.038H144.491V156.474H143.993V151.038ZM140.171 155.286L140.099 154.872C141.089 154.872 142.457 154.866 143.639 154.68L143.681 155.046C142.463 155.28 141.137 155.286 140.171 155.286ZM150.955 151.044H151.459V153.81H150.955V151.044ZM149.299 151.308H149.845C149.845 152.694 148.879 153.552 147.283 153.924L147.103 153.516C148.531 153.204 149.299 152.502 149.299 151.56V151.308ZM147.373 151.308H149.635V151.716H147.373V151.308ZM147.949 154.074H151.459V155.394H148.453V156.216H147.961V155.022H150.961V154.47H147.949V154.074ZM147.961 156.018H151.639V156.414H147.961V156.018ZM156.468 151.038H156.966V156.474H156.468V151.038ZM154.104 151.458C154.908 151.458 155.484 152.196 155.484 153.348C155.484 154.506 154.908 155.244 154.104 155.244C153.306 155.244 152.73 154.506 152.73 153.348C152.73 152.196 153.306 151.458 154.104 151.458ZM154.104 151.908C153.576 151.908 153.204 152.472 153.204 153.348C153.204 154.23 153.576 154.806 154.104 154.806C154.638 154.806 155.004 154.23 155.004 153.348C155.004 152.472 154.638 151.908 154.104 151.908ZM159.264 154.128C159.264 154.42 159.234 154.702 159.174 154.974C159.118 155.242 159.04 155.492 158.94 155.724C158.844 155.956 158.73 156.166 158.598 156.354C158.466 156.542 158.326 156.698 158.178 156.822H157.722C157.886 156.678 158.034 156.51 158.166 156.318C158.302 156.126 158.418 155.922 158.514 155.706C158.61 155.49 158.684 155.27 158.736 155.046C158.788 154.822 158.814 154.604 158.814 154.392V153.876C158.814 153.668 158.788 153.452 158.736 153.228C158.684 153.004 158.61 152.784 158.514 152.568C158.422 152.352 158.308 152.148 158.172 151.956C158.04 151.764 157.89 151.592 157.722 151.44H158.178C158.33 151.572 158.472 151.732 158.604 151.92C158.736 152.108 158.85 152.318 158.946 152.55C159.046 152.778 159.124 153.026 159.18 153.294C159.236 153.562 159.264 153.84 159.264 154.128Z" fill="black"/>
</svg>
