<svg width="267" height="121" viewBox="0 0 267 121" fill="none" xmlns="http://www.w3.org/2000/svg">
<rect x="18" y="51" width="10" height="10" rx="2" fill="#EEE638"/>
<rect x="32" y="51" width="10" height="10" rx="2" fill="#73B4D9"/>
<rect x="46" y="51" width="10" height="10" rx="2" fill="#65254D"/>
<rect x="60" y="51" width="10" height="10" rx="2" fill="#4836FD"/>
<rect x="74" y="51" width="10" height="10" rx="2" fill="#BF8E72"/>
<rect x="88" y="51" width="10" height="10" rx="2" fill="#B139B7"/>
<rect x="102" y="51" width="10" height="10" rx="2" fill="#B7DF23"/>
<rect x="116" y="51" width="10" height="10" rx="2" fill="#53464C"/>
<rect x="130" y="51" width="10" height="10" rx="2" fill="#C5E868"/>
<rect x="144" y="51" width="10" height="10" rx="2" fill="#8E6698"/>
<rect x="158" y="51" width="10" height="10" rx="2" fill="#C1B900"/>
<rect x="172" y="51" width="10" height="10" rx="2" fill="#ACEA39"/>
<rect x="186.25" y="51.25" width="9.5" height="9.5" rx="1.75" stroke="black" stroke-width="0.5" stroke-dasharray="1 1"/>
<rect x="200.25" y="51.25" width="9.5" height="9.5" rx="1.75" stroke="black" stroke-width="0.5" stroke-dasharray="1 1"/>
<rect x="18" y="81" width="10" height="10" rx="2" fill="#FDD43E"/>
<rect x="32" y="81" width="10" height="10" rx="2" fill="#8166DC"/>
<rect x="46" y="81" width="10" height="10" rx="2" fill="#ED1CEF"/>
<rect x="60" y="81" width="10" height="10" rx="2" fill="#D37850"/>
<rect x="74" y="81" width="10" height="10" rx="2" fill="#2A673C"/>
<rect x="88" y="81" width="10" height="10" rx="2" fill="#4A3DD7"/>
<rect x="102" y="81" width="10" height="10" rx="2" fill="#A8F611"/>
<rect x="116" y="81" width="10" height="10" rx="2" fill="#137596"/>
<rect x="130" y="81" width="10" height="10" rx="2" fill="#E61195"/>
<rect x="144" y="81" width="10" height="10" rx="2" fill="#5AD244"/>
<rect x="158" y="81" width="10" height="10" rx="2" fill="#AF12E5"/>
<rect x="172.25" y="81.25" width="9.5" height="9.5" rx="1.75" stroke="black" stroke-width="0.5" stroke-dasharray="1 1"/>
<path d="M188 90.75C187.883 90.75 187.769 90.7385 187.658 90.7167L187.61 90.9619C187.347 90.91 187.103 90.8068 186.889 90.6631L187.028 90.4554C186.837 90.3276 186.672 90.1631 186.545 89.9722L186.337 90.1112C186.193 89.8966 186.09 89.6527 186.038 89.3903L186.283 89.3418C186.261 89.2315 186.25 89.1172 186.25 89V88.5H186V87.5H186.25V86.5H186V85.5H186.25V84.5H186V83.5H186.25V83C186.25 82.8828 186.261 82.7685 186.283 82.6582L186.038 82.6097C186.09 82.3473 186.193 82.1034 186.337 81.8888L186.545 82.0278C186.672 81.8369 186.837 81.6724 187.028 81.5446L186.889 81.3369C187.103 81.1932 187.347 81.09 187.61 81.0381L187.658 81.2833C187.769 81.2615 187.883 81.25 188 81.25H188.5V81H189.5V81.25H190.5V81H191.5V81.25H192.5V81H193.5V81.25H194C194.117 81.25 194.231 81.2615 194.342 81.2833L194.39 81.0381C194.653 81.09 194.897 81.1932 195.111 81.3369L194.972 81.5446C195.163 81.6724 195.328 81.8369 195.455 82.0278L195.663 81.8888C195.807 82.1034 195.91 82.3473 195.962 82.6097L195.717 82.6582C195.739 82.7685 195.75 82.8828 195.75 83V83.5H196V84.5H195.75V85.5H196V86.5H195.75V87.5H196V88.5H195.75V89C195.75 89.1172 195.739 89.2315 195.717 89.3418L195.962 89.3903C195.91 89.6527 195.807 89.8966 195.663 90.1112L195.455 89.9722C195.328 90.1631 195.163 90.3276 194.972 90.4554L195.111 90.6631C194.897 90.8068 194.653 90.91 194.39 90.9619L194.342 90.7167C194.231 90.7385 194.117 90.75 194 90.75H193.5V91H192.5V90.75H191.5V91H190.5V90.75H189.5V91H188.5V90.75H188Z" stroke="black" stroke-width="0.5" stroke-dasharray="1 1"/>
<path d="M202 90.75C201.883 90.75 201.769 90.7385 201.658 90.7167L201.61 90.9619C201.347 90.91 201.103 90.8068 200.889 90.6631L201.028 90.4554C200.837 90.3276 200.672 90.1631 200.545 89.9722L200.337 90.1112C200.193 89.8966 200.09 89.6527 200.038 89.3903L200.283 89.3418C200.261 89.2315 200.25 89.1172 200.25 89V88.5H200V87.5H200.25V86.5H200V85.5H200.25V84.5H200V83.5H200.25V83C200.25 82.8828 200.261 82.7685 200.283 82.6582L200.038 82.6097C200.09 82.3473 200.193 82.1034 200.337 81.8888L200.545 82.0278C200.672 81.8369 200.837 81.6724 201.028 81.5446L200.889 81.3369C201.103 81.1932 201.347 81.09 201.61 81.0381L201.658 81.2833C201.769 81.2615 201.883 81.25 202 81.25H202.5V81H203.5V81.25H204.5V81H205.5V81.25H206.5V81H207.5V81.25H208C208.117 81.25 208.231 81.2615 208.342 81.2833L208.39 81.0381C208.653 81.09 208.897 81.1932 209.111 81.3369L208.972 81.5446C209.163 81.6724 209.328 81.8369 209.455 82.0278L209.663 81.8888C209.807 82.1034 209.91 82.3473 209.962 82.6097L209.717 82.6582C209.739 82.7685 209.75 82.8828 209.75 83V83.5H210V84.5H209.75V85.5H210V86.5H209.75V87.5H210V88.5H209.75V89C209.75 89.1172 209.739 89.2315 209.717 89.3418L209.962 89.3903C209.91 89.6527 209.807 89.8966 209.663 90.1112L209.455 89.9722C209.328 90.1631 209.163 90.3276 208.972 90.4554L209.111 90.6631C208.897 90.8068 208.653 90.91 208.39 90.9619L208.342 90.7167C208.231 90.7385 208.117 90.75 208 90.75H207.5V91H206.5V90.75H205.5V91H204.5V90.75H203.5V91H202.5V90.75H202Z" stroke="black" stroke-width="0.5" stroke-dasharray="1 1"/>
<rect x="18" y="111" width="10" height="10" rx="2" fill="#B0D9DB"/>
<rect x="32" y="111" width="10" height="10" rx="2" fill="#406354"/>
<rect x="46" y="111" width="10" height="10" rx="2" fill="#12039E"/>
<rect x="60" y="111" width="10" height="10" rx="2" fill="#4D0E30"/>
<rect x="74" y="111" width="10" height="10" rx="2" fill="#05A672"/>
<rect x="88" y="111" width="10" height="10" rx="2" fill="#7AA235"/>
<rect x="102" y="111" width="10" height="10" rx="2" fill="#D057F2"/>
<rect x="116" y="111" width="10" height="10" rx="2" fill="#D3227D"/>
<rect x="130" y="111" width="10" height="10" rx="2" fill="#8A37AD"/>
<rect x="144.25" y="111.25" width="9.5" height="9.5" rx="1.75" stroke="black" stroke-width="0.5" stroke-dasharray="1 1"/>
<rect x="158.25" y="111.25" width="9.5" height="9.5" rx="1.75" stroke="black" stroke-width="0.5" stroke-dasharray="1 1"/>
<path d="M202 120.75C201.883 120.75 201.769 120.739 201.658 120.717L201.61 120.962C201.347 120.91 201.103 120.807 200.889 120.663L201.028 120.455C200.837 120.328 200.672 120.163 200.545 119.972L200.337 120.111C200.193 119.897 200.09 119.653 200.038 119.39L200.283 119.342C200.261 119.231 200.25 119.117 200.25 119V118.5H200V117.5H200.25V116.5H200V115.5H200.25V114.5H200V113.5H200.25V113C200.25 112.883 200.261 112.769 200.283 112.658L200.038 112.61C200.09 112.347 200.193 112.103 200.337 111.889L200.545 112.028C200.672 111.837 200.837 111.672 201.028 111.545L200.889 111.337C201.103 111.193 201.347 111.09 201.61 111.038L201.658 111.283C201.769 111.261 201.883 111.25 202 111.25H202.5V111H203.5V111.25H204.5V111H205.5V111.25H206.5V111H207.5V111.25H208C208.117 111.25 208.231 111.261 208.342 111.283L208.39 111.038C208.653 111.09 208.897 111.193 209.111 111.337L208.972 111.545C209.163 111.672 209.328 111.837 209.455 112.028L209.663 111.889C209.807 112.103 209.91 112.347 209.962 112.61L209.717 112.658C209.739 112.769 209.75 112.883 209.75 113V113.5H210V114.5H209.75V115.5H210V116.5H209.75V117.5H210V118.5H209.75V119C209.75 119.117 209.739 119.231 209.717 119.342L209.962 119.39C209.91 119.653 209.807 119.897 209.663 120.111L209.455 119.972C209.328 120.163 209.163 120.328 208.972 120.455L209.111 120.663C208.897 120.807 208.653 120.91 208.39 120.962L208.342 120.717C208.231 120.739 208.117 120.75 208 120.75H207.5V121H206.5V120.75H205.5V121H204.5V120.75H203.5V121H202.5V120.75H202Z" stroke="black" stroke-width="0.5" stroke-dasharray="1 1"/>
<rect x="172.25" y="111.25" width="9.5" height="9.5" rx="1.75" stroke="black" stroke-width="0.5" stroke-dasharray="1 1"/>
<rect x="186.25" y="111.25" width="9.5" height="9.5" rx="1.75" stroke="black" stroke-width="0.5" stroke-dasharray="1 1"/>
<rect x="18" y="21" width="10" height="10" rx="2" fill="#F49BB2"/>
<rect x="32" y="21" width="10" height="10" rx="2" fill="#1FDD0D"/>
<rect x="46" y="21" width="10" height="10" rx="2" fill="#31C562"/>
<rect x="60" y="21" width="10" height="10" rx="2" fill="#0C1E9B"/>
<rect x="74" y="21" width="10" height="10" rx="2" fill="#779B93"/>
<rect x="88" y="21" width="10" height="10" rx="2" fill="#10B915"/>
<rect x="102" y="21" width="10" height="10" rx="2" fill="#A16833"/>
<rect x="116" y="21" width="10" height="10" rx="2" fill="#8352AD"/>
<rect x="130" y="21" width="10" height="10" rx="2" fill="#F01B59"/>
<rect x="144" y="21" width="10" height="10" rx="2" fill="#55D635"/>
<rect x="158" y="21" width="10" height="10" rx="2" fill="#5FDEC2"/>
<rect x="172" y="21" width="10" height="10" rx="2" fill="#8D13BF"/>
<rect x="186" y="21" width="10" height="10" rx="2" fill="#67BF3D"/>
<rect x="200" y="21" width="10" height="10" rx="2" fill="#66718E"/>
<path d="M223.966 28V27.274H225.094V24.466H225.04L224.188 25.582L223.612 25.132L224.614 23.812H225.994V27.274H226.882V28H223.966ZM230.306 28H227.342V27.178L228.632 26.074C228.748 25.974 228.846 25.884 228.926 25.804C229.006 25.72 229.07 25.64 229.118 25.564C229.17 25.484 229.206 25.406 229.226 25.33C229.25 25.254 229.262 25.172 229.262 25.084V25C229.262 24.92 229.246 24.85 229.214 24.79C229.182 24.73 229.14 24.68 229.088 24.64C229.036 24.6 228.976 24.57 228.908 24.55C228.844 24.53 228.778 24.52 228.71 24.52C228.61 24.52 228.522 24.536 228.446 24.568C228.374 24.6 228.31 24.644 228.254 24.7C228.202 24.752 228.158 24.814 228.122 24.886C228.086 24.954 228.058 25.028 228.038 25.108L227.252 24.808C227.3 24.664 227.366 24.528 227.45 24.4C227.534 24.268 227.638 24.154 227.762 24.058C227.89 23.958 228.04 23.88 228.212 23.824C228.384 23.768 228.578 23.74 228.794 23.74C229.022 23.74 229.224 23.772 229.4 23.836C229.576 23.9 229.724 23.988 229.844 24.1C229.968 24.212 230.062 24.346 230.126 24.502C230.19 24.654 230.222 24.82 230.222 25C230.222 25.18 230.192 25.344 230.132 25.492C230.072 25.64 229.99 25.78 229.886 25.912C229.786 26.04 229.668 26.162 229.532 26.278C229.396 26.394 229.254 26.512 229.106 26.632L228.326 27.244H230.306V28Z" fill="black"/>
<path d="M0.67725 1.47H1.42725V2.718H2.13525V1.47H2.87325V5.22H0.67725V1.47ZM1.42725 3.342V4.584H2.13525V3.342H1.42725ZM4.53525 0.978H5.29725V6.534H4.53525V0.978ZM3.85125 3.096H4.77525V3.738H3.85125V3.096ZM3.31725 1.062H4.06725V6.282H3.31725V1.062ZM9.85678 0.978H10.6608V6.534H9.85678V0.978ZM7.40878 2.418H8.03878V2.706C8.03878 3.882 7.51678 5.064 6.49078 5.508L6.06478 4.896C6.97678 4.488 7.40878 3.546 7.40878 2.706V2.418ZM7.58278 2.418H8.20678V2.706C8.20678 3.504 8.64478 4.416 9.56278 4.806L9.13678 5.418C8.11078 4.992 7.58278 3.846 7.58278 2.706V2.418ZM6.25078 1.884H9.34078V2.514H6.25078V1.884ZM7.40878 1.104H8.20678V2.208H7.40878V1.104ZM16.8423 0.972H17.6403V6.546H16.8423V0.972ZM15.8643 3.108H17.0223V3.75H15.8643V3.108ZM14.2623 2.418H14.8863V2.706C14.8863 3.876 14.3823 5.058 13.3743 5.508L12.9483 4.896C13.8483 4.482 14.2623 3.54 14.2623 2.706V2.418ZM14.4363 2.418H15.0543V2.706C15.0543 3.504 15.4803 4.404 16.3803 4.806L15.9603 5.412C14.9403 4.98 14.4363 3.84 14.4363 2.706V2.418ZM13.1343 1.884H16.1643V2.514H13.1343V1.884ZM14.2623 1.104H15.0603V2.208H14.2623V1.104ZM22.3258 0.972H23.1238V6.546H22.3258V0.972ZM18.7978 4.602H19.2898C20.2738 4.602 21.0598 4.566 21.9418 4.416L22.0198 5.058C21.1198 5.22 20.3038 5.25 19.2898 5.25H18.7978V4.602ZM18.7918 1.446H21.4138V3.594H19.6078V4.842H18.7978V2.964H20.5978V2.082H18.7918V1.446ZM27.5933 0.972H28.3913V3.972H27.5933V0.972ZM28.0733 2.16H29.1293V2.808H28.0733V2.16ZM24.7193 4.194H28.3913V5.604H25.5233V6.108H24.7313V5.064H27.6053V4.77H24.7193V4.194ZM24.7313 5.91H28.5533V6.498H24.7313V5.91ZM24.0173 1.386H27.2873V1.986H24.0173V1.386ZM25.6553 2.118C26.4773 2.118 27.0173 2.472 27.0173 3.03C27.0173 3.588 26.4773 3.93 25.6553 3.93C24.8273 3.93 24.2873 3.588 24.2873 3.03C24.2873 2.472 24.8273 2.118 25.6553 2.118ZM25.6553 2.676C25.2833 2.676 25.0553 2.796 25.0553 3.03C25.0553 3.252 25.2833 3.372 25.6553 3.372C26.0273 3.372 26.2553 3.252 26.2553 3.03C26.2553 2.796 26.0273 2.676 25.6553 2.676ZM25.2533 0.936H26.0513V1.812H25.2533V0.936ZM33.0488 1.14H33.7508V1.398C33.7508 2.466 32.9108 3.372 31.4528 3.588L31.1408 2.946C32.4188 2.778 33.0488 2.052 33.0488 1.398V1.14ZM33.1988 1.14H33.8948V1.398C33.8948 2.046 34.5308 2.778 35.8028 2.946L35.4968 3.588C34.0388 3.372 33.1988 2.466 33.1988 1.398V1.14ZM33.0548 4.5H33.8468V6.534H33.0548V4.5ZM30.9608 3.996H35.9828V4.644H30.9608V3.996ZM39.1403 4.35H39.7403V4.536C39.7403 5.376 39.3683 6.144 38.4983 6.456L38.1083 5.874C38.8343 5.628 39.1403 5.076 39.1403 4.536V4.35ZM39.3443 4.35H39.9143V4.536C39.9143 5.076 40.1843 5.64 40.8623 5.922L40.5443 6.51C39.6623 6.18 39.3443 5.352 39.3443 4.536V4.35ZM41.1683 4.35H41.7383V4.536C41.7383 5.304 41.4083 6.168 40.5443 6.51L40.2143 5.922C40.8923 5.616 41.1683 5.028 41.1683 4.536V4.35ZM41.3543 4.35H41.9543V4.536C41.9543 5.112 42.2543 5.646 42.9863 5.874L42.5963 6.456C41.7143 6.156 41.3543 5.412 41.3543 4.536V4.35ZM41.7083 0.984H42.5123V4.122H41.7083V0.984ZM39.4883 1.266C40.3523 1.266 40.9943 1.818 40.9943 2.598C40.9943 3.372 40.3523 3.924 39.4883 3.924C38.6243 3.924 37.9763 3.372 37.9763 2.598C37.9763 1.818 38.6243 1.266 39.4883 1.266ZM39.4883 1.926C39.0683 1.926 38.7563 2.172 38.7563 2.598C38.7563 3.018 39.0683 3.264 39.4883 3.264C39.9083 3.264 40.2143 3.018 40.2143 2.598C40.2143 2.172 39.9083 1.926 39.4883 1.926ZM47.4379 0.978H48.1999V6.534H47.4379V0.978ZM45.2359 3.108H46.4239V3.738H45.2359V3.108ZM46.2679 1.098H47.0119V6.288H46.2679V1.098ZM45.0559 1.632H45.8239C45.8239 3.216 45.3499 4.476 43.7899 5.382L43.3399 4.824C44.6059 4.062 45.0559 3.138 45.0559 1.794V1.632ZM43.6519 1.632H45.3079V2.268H43.6519V1.632ZM54.1654 0.978H54.9694V3.768H54.1654V0.978ZM52.4194 1.182H53.2954C53.2954 2.706 52.4614 3.528 50.7094 3.882L50.4334 3.24C51.9154 2.976 52.4194 2.376 52.4194 1.638V1.182ZM50.7274 1.182H52.9834V1.818H50.7274V1.182ZM51.2614 3.996H54.9694V5.502H52.0714V6.108H51.2734V4.932H54.1654V4.608H51.2614V3.996ZM51.2734 5.862H55.1074V6.48H51.2734V5.862ZM59.6789 0.972H60.4829V6.546H59.6789V0.972ZM57.4889 1.362C58.3289 1.362 58.9469 2.13 58.9469 3.342C58.9469 4.566 58.3289 5.334 57.4889 5.334C56.6489 5.334 56.0309 4.566 56.0309 3.342C56.0309 2.13 56.6489 1.362 57.4889 1.362ZM57.4889 2.088C57.0749 2.088 56.7929 2.526 56.7929 3.342C56.7929 4.17 57.0749 4.614 57.4889 4.614C57.9029 4.614 58.1789 4.17 58.1789 3.342C58.1789 2.526 57.9029 2.088 57.4889 2.088ZM63.6084 3.024H64.5204V3.666H63.6084V3.024ZM65.4024 0.978H66.1644V6.534H65.4024V0.978ZM64.2684 1.062H65.0184V6.282H64.2684V1.062ZM62.6364 1.368C63.3744 1.368 63.8484 2.13 63.8484 3.384C63.8484 4.644 63.3744 5.406 62.6364 5.406C61.9044 5.406 61.4364 4.644 61.4364 3.384C61.4364 2.13 61.9044 1.368 62.6364 1.368ZM62.6364 2.118C62.3364 2.118 62.1624 2.538 62.1624 3.384C62.1624 4.236 62.3364 4.65 62.6364 4.65C62.9484 4.65 63.1224 4.236 63.1224 3.384C63.1224 2.538 62.9484 2.118 62.6364 2.118ZM68.4879 1.332H71.1339V3.78H68.4879V1.332ZM70.3479 1.962H69.2739V3.15H70.3479V1.962ZM71.9019 0.978H72.6999V4.086H71.9019V0.978ZM72.4779 2.184H73.4379V2.832H72.4779V2.184ZM70.4859 4.644H71.1579V4.776C71.1579 5.64 70.4439 6.342 69.0999 6.516L68.8119 5.91C69.9699 5.772 70.4859 5.256 70.4859 4.776V4.644ZM70.6599 4.644H71.3379V4.776C71.3379 5.238 71.8659 5.772 73.0059 5.922L72.7239 6.528C71.3799 6.354 70.6599 5.616 70.6599 4.776V4.644ZM69.0459 4.35H72.7719V4.974H69.0459V4.35ZM75.9575 4.536H76.7495V6.54H75.9575V4.536ZM73.8515 4.302H78.8735V4.95H73.8515V4.302ZM75.9515 1.974H76.6535V2.106C76.6535 3.036 75.8495 3.846 74.3795 4.02L74.1035 3.396C75.3575 3.252 75.9515 2.622 75.9515 2.106V1.974ZM76.0535 1.974H76.7555V2.106C76.7555 2.61 77.3555 3.252 78.6035 3.396L78.3215 4.02C76.8575 3.852 76.0535 3.012 76.0535 2.106V1.974ZM74.3015 1.614H78.4175V2.244H74.3015V1.614ZM75.9575 0.99H76.7495V1.83H75.9575V0.99ZM80.889 1.362C81.717 1.362 82.323 2.13 82.323 3.342C82.323 4.566 81.717 5.334 80.889 5.334C80.055 5.334 79.455 4.566 79.455 3.342C79.455 2.13 80.055 1.362 80.889 1.362ZM80.889 2.088C80.487 2.088 80.217 2.526 80.217 3.342C80.217 4.17 80.487 4.614 80.889 4.614C81.297 4.614 81.561 4.17 81.561 3.342C81.561 2.526 81.297 2.088 80.889 2.088ZM83.235 0.972H84.027V6.546H83.235V0.972ZM82.089 2.976H83.571V3.618H82.089V2.976ZM86.4765 2.85H87.3645V3.378H87.3945C87.4385 3.202 87.5385 3.058 87.6945 2.946C87.8545 2.834 88.0365 2.778 88.2405 2.778C88.6405 2.778 88.9425 2.918 89.1465 3.198C89.3505 3.478 89.4525 3.886 89.4525 4.422C89.4525 4.958 89.3505 5.368 89.1465 5.652C88.9425 5.932 88.6405 6.072 88.2405 6.072C88.1365 6.072 88.0385 6.056 87.9465 6.024C87.8545 5.996 87.7705 5.956 87.6945 5.904C87.6225 5.848 87.5605 5.784 87.5085 5.712C87.4565 5.636 87.4185 5.556 87.3945 5.472H87.3645V7.2H86.4765V2.85ZM87.9465 5.352C88.1145 5.352 88.2525 5.294 88.3605 5.178C88.4725 5.058 88.5285 4.898 88.5285 4.698V4.152C88.5285 3.952 88.4725 3.794 88.3605 3.678C88.2525 3.558 88.1145 3.498 87.9465 3.498C87.7785 3.498 87.6385 3.54 87.5265 3.624C87.4185 3.704 87.3645 3.816 87.3645 3.96V4.89C87.3645 5.034 87.4185 5.148 87.5265 5.232C87.6385 5.312 87.7785 5.352 87.9465 5.352ZM92.4549 6C92.2949 6 92.1609 5.95 92.0529 5.85C91.9489 5.75 91.8829 5.616 91.8549 5.448H91.8189C91.7709 5.652 91.6649 5.808 91.5009 5.916C91.3369 6.02 91.1349 6.072 90.8949 6.072C90.5789 6.072 90.3369 5.988 90.1689 5.82C90.0009 5.652 89.9169 5.43 89.9169 5.154C89.9169 4.822 90.0369 4.576 90.2769 4.416C90.5209 4.252 90.8509 4.17 91.2669 4.17H91.7649V3.972C91.7649 3.82 91.7249 3.7 91.6449 3.612C91.5649 3.52 91.4309 3.474 91.2429 3.474C91.0669 3.474 90.9269 3.512 90.8229 3.588C90.7189 3.664 90.6329 3.75 90.5649 3.846L90.0369 3.378C90.1649 3.19 90.3249 3.044 90.5169 2.94C90.7129 2.832 90.9769 2.778 91.3089 2.778C91.7569 2.778 92.0929 2.876 92.3169 3.072C92.5409 3.268 92.6529 3.554 92.6529 3.93V5.31H92.9469V6H92.4549ZM91.2249 5.454C91.3729 5.454 91.4989 5.422 91.6029 5.358C91.7109 5.294 91.7649 5.19 91.7649 5.046V4.674H91.3329C90.9849 4.674 90.8109 4.792 90.8109 5.028V5.118C90.8109 5.234 90.8469 5.32 90.9189 5.376C90.9909 5.428 91.0929 5.454 91.2249 5.454ZM95.4749 5.472H95.4449C95.4209 5.556 95.3829 5.636 95.3309 5.712C95.2789 5.784 95.2149 5.848 95.1389 5.904C95.0669 5.956 94.9829 5.996 94.8869 6.024C94.7949 6.056 94.6989 6.072 94.5989 6.072C94.1989 6.072 93.8969 5.932 93.6929 5.652C93.4889 5.368 93.3869 4.958 93.3869 4.422C93.3869 3.886 93.4889 3.478 93.6929 3.198C93.8969 2.918 94.1989 2.778 94.5989 2.778C94.8029 2.778 94.9829 2.834 95.1389 2.946C95.2989 3.058 95.4009 3.202 95.4449 3.378H95.4749V1.56H96.3629V6H95.4749V5.472ZM94.8929 5.352C95.0609 5.352 95.1989 5.312 95.3069 5.232C95.4189 5.148 95.4749 5.034 95.4749 4.89V3.96C95.4749 3.816 95.4189 3.704 95.3069 3.624C95.1989 3.54 95.0609 3.498 94.8929 3.498C94.7249 3.498 94.5849 3.558 94.4729 3.678C94.3649 3.794 94.3109 3.952 94.3109 4.152V4.698C94.3109 4.898 94.3649 5.058 94.4729 5.178C94.5849 5.294 94.7249 5.352 94.8929 5.352ZM99.1253 5.472H99.0953C99.0713 5.556 99.0333 5.636 98.9813 5.712C98.9293 5.784 98.8653 5.848 98.7893 5.904C98.7173 5.956 98.6333 5.996 98.5373 6.024C98.4453 6.056 98.3493 6.072 98.2493 6.072C97.8493 6.072 97.5473 5.932 97.3433 5.652C97.1393 5.368 97.0373 4.958 97.0373 4.422C97.0373 3.886 97.1393 3.478 97.3433 3.198C97.5473 2.918 97.8493 2.778 98.2493 2.778C98.4533 2.778 98.6333 2.834 98.7893 2.946C98.9493 3.058 99.0513 3.202 99.0953 3.378H99.1253V1.56H100.013V6H99.1253V5.472ZM98.5433 5.352C98.7113 5.352 98.8493 5.312 98.9573 5.232C99.0693 5.148 99.1253 5.034 99.1253 4.89V3.96C99.1253 3.816 99.0693 3.704 98.9573 3.624C98.8493 3.54 98.7113 3.498 98.5433 3.498C98.3753 3.498 98.2353 3.558 98.1233 3.678C98.0153 3.794 97.9613 3.952 97.9613 4.152V4.698C97.9613 4.898 98.0153 5.058 98.1233 5.178C98.2353 5.294 98.3753 5.352 98.5433 5.352ZM101.288 2.514C101.108 2.514 100.976 2.474 100.892 2.394C100.812 2.31 100.772 2.204 100.772 2.076V1.944C100.772 1.816 100.812 1.712 100.892 1.632C100.976 1.548 101.108 1.506 101.288 1.506C101.468 1.506 101.598 1.548 101.678 1.632C101.762 1.712 101.804 1.816 101.804 1.944V2.076C101.804 2.204 101.762 2.31 101.678 2.394C101.598 2.474 101.468 2.514 101.288 2.514ZM100.844 2.85H101.732V6H100.844V2.85ZM102.56 6V2.85H103.448V3.384H103.484C103.54 3.22 103.638 3.078 103.778 2.958C103.918 2.838 104.112 2.778 104.36 2.778C104.684 2.778 104.928 2.886 105.092 3.102C105.26 3.318 105.344 3.626 105.344 4.026V6H104.456V4.098C104.456 3.894 104.424 3.744 104.36 3.648C104.296 3.548 104.182 3.498 104.018 3.498C103.946 3.498 103.876 3.508 103.808 3.528C103.74 3.544 103.678 3.572 103.622 3.612C103.57 3.652 103.528 3.702 103.496 3.762C103.464 3.818 103.448 3.884 103.448 3.96V6H102.56ZM109.051 6.228C109.051 6.396 109.021 6.544 108.961 6.672C108.905 6.8 108.811 6.908 108.679 6.996C108.547 7.088 108.371 7.156 108.151 7.2C107.935 7.248 107.667 7.272 107.347 7.272C107.075 7.272 106.843 7.254 106.651 7.218C106.463 7.186 106.309 7.138 106.189 7.074C106.073 7.014 105.987 6.938 105.931 6.846C105.879 6.758 105.853 6.656 105.853 6.54C105.853 6.364 105.905 6.226 106.009 6.126C106.113 6.026 106.257 5.964 106.441 5.94V5.874C106.289 5.846 106.175 5.782 106.099 5.682C106.023 5.578 105.985 5.458 105.985 5.322C105.985 5.238 106.001 5.166 106.033 5.106C106.069 5.042 106.113 4.988 106.165 4.944C106.221 4.896 106.285 4.858 106.357 4.83C106.429 4.802 106.501 4.78 106.573 4.764V4.74C106.381 4.652 106.239 4.532 106.147 4.38C106.055 4.224 106.009 4.044 106.009 3.84C106.009 3.52 106.119 3.264 106.339 3.072C106.563 2.876 106.903 2.778 107.359 2.778C107.567 2.778 107.745 2.798 107.893 2.838V2.718C107.893 2.55 107.933 2.43 108.013 2.358C108.097 2.282 108.215 2.244 108.367 2.244H108.865V2.904H108.169V2.94C108.353 3.028 108.489 3.15 108.577 3.306C108.665 3.458 108.709 3.636 108.709 3.84C108.709 4.156 108.597 4.41 108.373 4.602C108.153 4.79 107.815 4.884 107.359 4.884C107.155 4.884 106.969 4.862 106.801 4.818C106.709 4.878 106.663 4.962 106.663 5.07C106.663 5.146 106.691 5.206 106.747 5.25C106.807 5.29 106.905 5.31 107.041 5.31H107.953C108.337 5.31 108.615 5.39 108.787 5.55C108.963 5.71 109.051 5.936 109.051 6.228ZM108.217 6.348C108.217 6.256 108.181 6.186 108.109 6.138C108.037 6.09 107.911 6.066 107.731 6.066H106.651C106.611 6.106 106.581 6.15 106.561 6.198C106.545 6.25 106.537 6.3 106.537 6.348C106.537 6.464 106.587 6.548 106.687 6.6C106.787 6.656 106.957 6.684 107.197 6.684H107.557C107.797 6.684 107.967 6.656 108.067 6.6C108.167 6.548 108.217 6.464 108.217 6.348ZM107.359 4.302C107.535 4.302 107.665 4.266 107.749 4.194C107.837 4.118 107.881 4.01 107.881 3.87V3.798C107.881 3.658 107.837 3.552 107.749 3.48C107.665 3.404 107.535 3.366 107.359 3.366C107.183 3.366 107.051 3.404 106.963 3.48C106.879 3.552 106.837 3.658 106.837 3.798V3.87C106.837 4.01 106.879 4.118 106.963 4.194C107.051 4.266 107.183 4.302 107.359 4.302ZM110.683 1.812H113.341V2.448H110.683V1.812ZM112.021 2.694C112.729 2.694 113.239 3.24 113.239 4.02C113.239 4.794 112.729 5.34 112.021 5.34C111.319 5.34 110.803 4.794 110.803 4.02C110.803 3.24 111.319 2.694 112.021 2.694ZM112.021 3.36C111.721 3.36 111.511 3.6 111.511 4.02C111.511 4.44 111.721 4.674 112.021 4.674C112.321 4.674 112.537 4.44 112.537 4.02C112.537 3.6 112.321 3.36 112.021 3.36ZM114.703 0.978H115.465V6.534H114.703V0.978ZM114.037 3.234H114.955V3.876H114.037V3.234ZM113.539 1.08H114.283V6.3H113.539V1.08ZM111.631 1.128H112.417V2.214H111.631V1.128ZM118.267 1.596H118.957V1.758C118.957 2.736 118.159 3.534 116.749 3.726L116.455 3.102C117.679 2.952 118.267 2.328 118.267 1.758V1.596ZM118.495 1.596H119.185V1.758C119.185 2.328 119.773 2.952 120.997 3.102L120.709 3.726C119.293 3.534 118.495 2.736 118.495 1.758V1.596ZM118.309 4.5H119.101V6.54H118.309V4.5ZM116.215 4.044H121.237V4.68H116.215V4.044ZM116.659 1.26H120.781V1.89H116.659V1.26ZM125.556 0.978H126.36V6.534H125.556V0.978ZM123.918 1.554H124.71C124.71 3.252 124.134 4.644 122.16 5.598L121.746 4.962C123.342 4.194 123.918 3.186 123.918 1.698V1.554ZM122.04 1.554H124.296V2.184H122.04V1.554ZM129.842 5.622V4.518H128.828V3.81H129.842V2.706H130.61V3.81H131.624V4.518H130.61V5.622H129.842ZM136.195 1.752H137.827V2.388H136.195V1.752ZM136.195 3.102H137.827V3.738H136.195V3.102ZM137.533 0.984H138.331V5.046H137.533V0.984ZM134.665 5.802H138.457V6.438H134.665V5.802ZM134.665 4.644H135.463V6.132H134.665V4.644ZM135.217 1.308C136.039 1.308 136.681 1.908 136.681 2.748C136.681 3.576 136.039 4.182 135.217 4.182C134.389 4.182 133.747 3.576 133.747 2.748C133.747 1.908 134.389 1.308 135.217 1.308ZM135.217 2.01C134.809 2.01 134.509 2.286 134.509 2.748C134.509 3.21 134.809 3.486 135.217 3.486C135.619 3.486 135.925 3.21 135.925 2.748C135.925 2.286 135.619 2.01 135.217 2.01ZM140.449 1.32H141.103V1.92C141.103 3.024 140.605 3.972 139.543 4.338L139.117 3.714C140.059 3.414 140.449 2.67 140.449 1.92V1.32ZM140.605 1.32H141.253V1.926C141.253 2.622 141.631 3.318 142.525 3.612L142.117 4.23C141.085 3.888 140.605 2.97 140.605 1.926V1.32ZM142.777 0.978H143.575V5.04H142.777V0.978ZM143.347 2.586H144.313V3.246H143.347V2.586ZM139.993 5.802H143.773V6.438H139.993V5.802ZM139.993 4.656H140.797V6.138H139.993V4.656ZM147.56 3.996H148.364V5.142H147.56V3.996ZM147.554 2.016H148.19V2.142C148.19 3.072 147.692 3.882 146.636 4.164L146.276 3.552C147.164 3.318 147.554 2.736 147.554 2.142V2.016ZM147.722 2.016H148.364V2.142C148.364 2.712 148.766 3.276 149.648 3.504L149.294 4.116C148.238 3.846 147.722 3.048 147.722 2.142V2.016ZM146.444 1.632H149.486V2.262H146.444V1.632ZM147.56 1.026H148.364V1.908H147.56V1.026ZM149.978 0.972H150.776V6.546H149.978V0.972ZM146.258 5.514L146.162 4.866C147.134 4.866 148.502 4.854 149.672 4.68L149.732 5.262C148.526 5.496 147.218 5.508 146.258 5.514ZM152.942 1.53H153.59V1.884C153.59 2.928 153.098 3.894 152.03 4.242L151.628 3.612C152.546 3.312 152.942 2.58 152.942 1.884V1.53ZM153.11 1.53H153.752V1.884C153.752 2.532 154.13 3.216 155.006 3.51L154.616 4.134C153.584 3.792 153.11 2.868 153.11 1.884V1.53ZM154.682 2.304H155.738V2.952H154.682V2.304ZM151.844 1.284H154.832V1.914H151.844V1.284ZM152.522 4.536H156.308V6.534H155.51V5.172H152.522V4.536ZM155.51 0.978H156.308V4.284H155.51V0.978ZM158.462 4.266H159.26V5.166H158.462V4.266ZM160.796 0.978H161.6V6.534H160.796V0.978ZM161.318 3.234H162.296V3.894H161.318V3.234ZM157.214 5.61L157.118 4.968C158.078 4.968 159.398 4.962 160.52 4.806L160.58 5.382C159.41 5.61 158.15 5.61 157.214 5.61ZM157.22 1.59H160.49V2.214H157.22V1.59ZM158.864 2.436C159.656 2.436 160.22 2.856 160.22 3.474C160.22 4.098 159.656 4.518 158.864 4.518C158.066 4.518 157.508 4.098 157.508 3.474C157.508 2.856 158.066 2.436 158.864 2.436ZM158.864 3.036C158.498 3.036 158.264 3.192 158.264 3.474C158.264 3.762 158.498 3.918 158.864 3.918C159.224 3.918 159.464 3.762 159.464 3.474C159.464 3.192 159.224 3.036 158.864 3.036ZM158.462 1.008H159.26V2.058H158.462V1.008ZM162.697 3.468H167.731V4.05H162.697V3.468ZM163.261 4.326H167.131V5.646H164.065V6.12H163.273V5.142H166.345V4.866H163.261V4.326ZM163.273 5.952H167.287V6.492H163.273V5.952ZM163.315 1.074H167.119V2.382H164.113V2.838H163.321V1.884H166.333V1.608H163.315V1.074ZM163.321 2.67H167.221V3.21H163.321V2.67ZM171.435 1.2C172.281 1.2 172.893 1.686 172.893 2.388C172.893 3.078 172.281 3.576 171.435 3.576C170.595 3.576 169.983 3.078 169.983 2.388C169.983 1.686 170.595 1.2 171.435 1.2ZM171.435 1.848C171.033 1.848 170.745 2.04 170.745 2.388C170.745 2.73 171.033 2.922 171.435 2.922C171.843 2.922 172.131 2.73 172.131 2.388C172.131 2.04 171.843 1.848 171.435 1.848ZM171.063 4.128H171.861V6.366H171.063V4.128ZM173.493 0.978H174.285V6.534H173.493V0.978ZM169.749 4.548L169.653 3.9C170.625 3.9 171.999 3.888 173.175 3.708L173.229 4.29C172.023 4.53 170.709 4.542 169.749 4.548ZM175.148 1.812H177.806V2.448H175.148V1.812ZM176.486 2.694C177.194 2.694 177.704 3.24 177.704 4.02C177.704 4.794 177.194 5.34 176.486 5.34C175.784 5.34 175.268 4.794 175.268 4.02C175.268 3.24 175.784 2.694 176.486 2.694ZM176.486 3.36C176.186 3.36 175.976 3.6 175.976 4.02C175.976 4.44 176.186 4.674 176.486 4.674C176.786 4.674 177.002 4.44 177.002 4.02C177.002 3.6 176.786 3.36 176.486 3.36ZM179.168 0.978H179.93V6.534H179.168V0.978ZM178.502 3.234H179.42V3.876H178.502V3.234ZM178.004 1.08H178.748V6.3H178.004V1.08ZM176.096 1.128H176.882V2.214H176.096V1.128ZM185.644 0.972H186.448V6.528H185.644V0.972ZM186.238 3.096H187.216V3.75H186.238V3.096ZM184.186 1.548H184.966C184.966 3.216 184.33 4.644 182.482 5.574L182.038 4.968C183.496 4.212 184.186 3.192 184.186 1.686V1.548ZM182.344 1.548H184.594V2.19H182.344V1.548ZM188.847 1.596H189.501V1.944C189.501 3.006 189.003 3.96 187.929 4.314L187.533 3.684C188.457 3.378 188.847 2.652 188.847 1.944V1.596ZM189.009 1.596H189.657V1.944C189.657 2.592 190.029 3.228 190.923 3.498L190.545 4.122C189.489 3.804 189.009 2.934 189.009 1.944V1.596ZM187.743 1.35H190.743V1.986H187.743V1.35ZM191.187 0.978H191.985V4.272H191.187V0.978ZM191.763 2.256H192.723V2.91H191.763V2.256ZM190.173 4.374C191.325 4.374 192.051 4.776 192.051 5.454C192.051 6.132 191.325 6.534 190.173 6.534C189.015 6.534 188.289 6.132 188.289 5.454C188.289 4.776 189.015 4.374 190.173 4.374ZM190.173 4.998C189.465 4.998 189.081 5.142 189.081 5.454C189.081 5.766 189.465 5.922 190.173 5.922C190.881 5.922 191.259 5.766 191.259 5.454C191.259 5.142 190.881 4.998 190.173 4.998ZM198.359 0.978H199.157V5.016H198.359V0.978ZM196.709 1.386H197.543C197.543 2.898 196.613 3.954 194.939 4.446L194.627 3.81C196.001 3.42 196.709 2.67 196.709 1.758V1.386ZM194.945 1.386H197.201V2.034H194.945V1.386ZM195.461 5.802H199.271V6.444H195.461V5.802ZM195.461 4.668H196.259V6.048H195.461V4.668ZM203.92 0.978H204.718V4.662H203.92V0.978ZM202.966 2.448H204.034V3.09H202.966V2.448ZM202.09 1.398H202.93C202.93 2.916 202.144 3.906 200.47 4.434L200.134 3.81C201.526 3.396 202.09 2.682 202.09 1.746V1.398ZM200.422 1.398H202.678V2.034H200.422V1.398ZM202.45 4.254H203.128V4.44C203.128 5.46 202.378 6.288 201.022 6.522L200.716 5.892C201.892 5.712 202.45 5.07 202.45 4.44V4.254ZM202.564 4.254H203.242V4.44C203.242 5.064 203.794 5.706 204.976 5.886L204.658 6.516C203.302 6.288 202.564 5.46 202.564 4.44V4.254ZM209.398 0.972H210.202V6.546H209.398V0.972ZM207.208 1.362C208.048 1.362 208.666 2.13 208.666 3.342C208.666 4.566 208.048 5.334 207.208 5.334C206.368 5.334 205.75 4.566 205.75 3.342C205.75 2.13 206.368 1.362 207.208 1.362ZM207.208 2.088C206.794 2.088 206.512 2.526 206.512 3.342C206.512 4.17 206.794 4.614 207.208 4.614C207.622 4.614 207.898 4.17 207.898 3.342C207.898 2.526 207.622 2.088 207.208 2.088ZM212.753 1.422H215.381V4.11H212.753V1.422ZM214.595 2.052H213.539V3.48H214.595V2.052ZM216.377 0.984H217.175V5.028H216.377V0.984ZM215.165 2.442H216.581V3.078H215.165V2.442ZM213.509 5.802H217.301V6.438H213.509V5.802ZM213.509 4.644H214.307V6.132H213.509V4.644ZM221.909 0.972H222.707V6.546H221.909V0.972ZM220.937 2.916H222.095V3.558H220.937V2.916ZM219.329 1.854H219.959V2.346C219.959 3.702 219.467 4.998 218.429 5.508L217.961 4.878C218.891 4.44 219.329 3.378 219.329 2.346V1.854ZM219.515 1.854H220.139V2.346C220.139 3.324 220.571 4.35 221.501 4.77L221.039 5.394C219.995 4.902 219.515 3.66 219.515 2.346V1.854ZM218.189 1.512H221.279V2.154H218.189V1.512ZM224.988 3.516H230.016V4.164H224.988V3.516ZM225.594 2.502H229.446V3.132H225.594V2.502ZM225.594 1.128H229.416V1.764H226.386V2.814H225.594V1.128ZM227.484 4.494C228.684 4.494 229.41 4.86 229.41 5.514C229.41 6.168 228.684 6.534 227.484 6.534C226.284 6.534 225.552 6.168 225.552 5.514C225.552 4.86 226.284 4.494 227.484 4.494ZM227.484 5.094C226.74 5.094 226.362 5.232 226.362 5.514C226.362 5.802 226.74 5.928 227.484 5.928C228.228 5.928 228.606 5.802 228.606 5.514C228.606 5.232 228.228 5.094 227.484 5.094ZM231.738 1.596H232.392V1.944C232.392 3.006 231.894 3.96 230.82 4.314L230.424 3.684C231.348 3.378 231.738 2.652 231.738 1.944V1.596ZM231.9 1.596H232.548V1.944C232.548 2.592 232.92 3.228 233.814 3.498L233.436 4.122C232.38 3.804 231.9 2.934 231.9 1.944V1.596ZM230.634 1.35H233.634V1.986H230.634V1.35ZM234.078 0.978H234.876V4.272H234.078V0.978ZM234.654 2.256H235.614V2.91H234.654V2.256ZM233.064 4.374C234.216 4.374 234.942 4.776 234.942 5.454C234.942 6.132 234.216 6.534 233.064 6.534C231.906 6.534 231.18 6.132 231.18 5.454C231.18 4.776 231.906 4.374 233.064 4.374ZM233.064 4.998C232.356 4.998 231.972 5.142 231.972 5.454C231.972 5.766 232.356 5.922 233.064 5.922C233.772 5.922 234.15 5.766 234.15 5.454C234.15 5.142 233.772 4.998 233.064 4.998ZM239.585 0.978H240.377V6.534H239.585V0.978ZM240.197 3.144H241.181V3.81H240.197V3.144ZM235.997 1.8H239.231V2.436H235.997V1.8ZM237.623 2.748C238.433 2.748 239.033 3.3 239.033 4.074C239.033 4.848 238.433 5.4 237.623 5.4C236.813 5.4 236.213 4.848 236.213 4.074C236.213 3.3 236.813 2.748 237.623 2.748ZM237.623 3.396C237.245 3.396 236.975 3.648 236.975 4.074C236.975 4.5 237.245 4.752 237.623 4.752C238.001 4.752 238.271 4.5 238.271 4.074C238.271 3.648 238.001 3.396 237.623 3.396ZM237.221 1.068H238.019V2.04H237.221V1.068ZM242.129 3.456H246.035V4.092H242.129V3.456ZM241.547 5.256H246.575V5.91H241.547V5.256ZM243.653 3.744H244.451V5.466H243.653V3.744ZM242.129 1.356H245.993V1.998H242.927V3.732H242.129V1.356ZM247.06 3.954H252.094V4.59H247.06V3.954ZM247.678 1.086H251.482V2.592H248.476V3.192H247.684V2.028H250.696V1.692H247.678V1.086ZM247.684 2.952H251.59V3.558H247.684V2.952ZM249.178 3.246H249.976V4.302H249.178V3.246ZM247.618 4.902H251.518V6.516H250.72V5.532H247.618V4.902ZM256.836 1.788H258.204V2.424H256.836V1.788ZM257.85 0.978H258.648V3.798H257.85V0.978ZM254.976 4.032H258.648V5.526H255.774V6.222H254.988V4.95H257.856V4.644H254.976V4.032ZM254.988 5.856H258.804V6.474H254.988V5.856ZM255.27 1.158H255.918V1.554C255.918 2.604 255.426 3.51 254.364 3.846L253.956 3.216C254.88 2.94 255.27 2.262 255.27 1.554V1.158ZM255.426 1.158H256.074V1.554C256.074 2.214 256.446 2.856 257.322 3.12L256.914 3.738C255.9 3.408 255.426 2.55 255.426 1.554V1.158ZM262.529 2.322H263.585V2.97H262.529V2.322ZM263.369 0.978H264.167V4.278H263.369V0.978ZM262.283 4.398C263.459 4.398 264.185 4.8 264.185 5.472C264.185 6.15 263.459 6.54 262.283 6.54C261.107 6.54 260.381 6.15 260.381 5.472C260.381 4.8 261.107 4.398 262.283 4.398ZM262.283 5.004C261.563 5.004 261.179 5.154 261.179 5.472C261.179 5.784 261.563 5.934 262.283 5.934C263.009 5.934 263.393 5.784 263.393 5.472C263.393 5.154 263.009 5.004 262.283 5.004ZM260.801 1.536H261.449V1.884C261.449 2.946 260.957 3.918 259.895 4.278L259.487 3.648C260.405 3.336 260.801 2.598 260.801 1.884V1.536ZM260.969 1.536H261.611V1.884C261.611 2.538 261.989 3.216 262.865 3.51L262.475 4.14C261.443 3.798 260.969 2.874 260.969 1.884V1.536ZM259.703 1.314H262.691V1.95H259.703V1.314ZM265.577 4.68L265.295 2.976V1.812H266.231V2.976L265.955 4.68H265.577ZM265.757 6.072C265.565 6.072 265.427 6.028 265.343 5.94C265.263 5.852 265.223 5.744 265.223 5.616V5.472C265.223 5.344 265.263 5.236 265.343 5.148C265.427 5.06 265.565 5.016 265.757 5.016C265.949 5.016 266.085 5.06 266.165 5.148C266.249 5.236 266.291 5.344 266.291 5.472V5.616C266.291 5.744 266.249 5.852 266.165 5.94C266.085 6.028 265.949 6.072 265.757 6.072Z" fill="black"/>
<path d="M223.966 58V57.274H225.094V54.466H225.04L224.188 55.582L223.612 55.132L224.614 53.812H225.994V57.274H226.882V58H223.966ZM229.022 58V57.196H227.18V56.428L228.812 53.812H229.88V56.5H230.408V57.196H229.88V58H229.022ZM227.9 56.5H229.022V54.742H228.962L227.9 56.5Z" fill="black"/>
<path d="M228.549 85.402C228.549 85.698 228.503 85.976 228.411 86.236C228.323 86.496 228.207 86.738 228.063 86.962C227.923 87.182 227.763 87.38 227.583 87.556C227.407 87.732 227.229 87.88 227.049 88H225.807C226.063 87.816 226.293 87.642 226.497 87.478C226.701 87.31 226.877 87.142 227.025 86.974C227.177 86.806 227.301 86.636 227.397 86.464C227.493 86.288 227.563 86.1 227.607 85.9L227.553 85.882C227.517 85.962 227.473 86.04 227.421 86.116C227.373 86.192 227.311 86.26 227.235 86.32C227.163 86.376 227.077 86.422 226.977 86.458C226.877 86.494 226.761 86.512 226.629 86.512C226.457 86.512 226.295 86.482 226.143 86.422C225.995 86.358 225.865 86.27 225.753 86.158C225.645 86.046 225.559 85.91 225.495 85.75C225.435 85.59 225.405 85.41 225.405 85.21C225.405 84.994 225.441 84.796 225.513 84.616C225.589 84.436 225.695 84.282 225.831 84.154C225.971 84.022 226.137 83.92 226.329 83.848C226.521 83.776 226.737 83.74 226.977 83.74C227.225 83.74 227.447 83.78 227.643 83.86C227.839 83.936 228.003 84.048 228.135 84.196C228.271 84.34 228.373 84.514 228.441 84.718C228.513 84.922 228.549 85.15 228.549 85.402ZM226.977 85.822C227.177 85.822 227.333 85.768 227.445 85.66C227.557 85.548 227.613 85.39 227.613 85.186V85.078C227.613 84.874 227.557 84.718 227.445 84.61C227.333 84.498 227.177 84.442 226.977 84.442C226.777 84.442 226.621 84.498 226.509 84.61C226.397 84.718 226.341 84.874 226.341 85.078V85.186C226.341 85.39 226.397 85.548 226.509 85.66C226.621 85.768 226.777 85.822 226.977 85.822Z" fill="black"/>
<path d="M223.966 118V117.274H225.094V114.466H225.04L224.188 115.582L223.612 115.132L224.614 113.812H225.994V117.274H226.882V118H223.966ZM227.564 118V117.274H228.692V114.466H228.638L227.786 115.582L227.21 115.132L228.212 113.812H229.592V117.274H230.48V118H227.564Z" fill="black"/>
</svg>
