<svg width="235" height="129" viewBox="0 0 235 129" fill="none" xmlns="http://www.w3.org/2000/svg">
<rect y="89" width="10" height="10" rx="2" fill="#B0D9DB"/>
<rect x="14" y="89" width="10" height="10" rx="2" fill="#406354"/>
<rect x="28" y="89" width="10" height="10" rx="2" fill="#12039E"/>
<rect x="42" y="89" width="10" height="10" rx="2" fill="#4D0E30"/>
<rect x="56" y="89" width="10" height="10" rx="2" fill="#05A672"/>
<rect x="70" y="89" width="10" height="10" rx="2" fill="#7AA235"/>
<rect x="84" y="89" width="10" height="10" rx="2" fill="#D057F2"/>
<rect x="98" y="89" width="10" height="10" rx="2" fill="#D3227D"/>
<rect x="112" y="89" width="10" height="10" rx="2" fill="#8A37AD"/>
<rect y="119" width="10" height="10" rx="2" fill="#FDD43E"/>
<rect x="14" y="119" width="10" height="10" rx="2" fill="#8166DC"/>
<rect x="28" y="119" width="10" height="10" rx="2" fill="#ED1CEF"/>
<rect x="42" y="119" width="10" height="10" rx="2" fill="#D37850"/>
<rect x="56" y="119" width="10" height="10" rx="2" fill="#2A673C"/>
<rect x="70" y="119" width="10" height="10" rx="2" fill="#4A3DD7"/>
<rect x="84" y="119" width="10" height="10" rx="2" fill="#A8F611"/>
<rect x="98" y="119" width="10" height="10" rx="2" fill="#137596"/>
<rect x="112" y="119" width="10" height="10" rx="2" fill="#E61195"/>
<rect x="126" y="119" width="10" height="10" rx="2" fill="#5AD244"/>
<rect x="140" y="119" width="10" height="10" rx="2" fill="#AF12E5"/>
<rect y="29" width="10" height="10" rx="2" fill="#EEE638"/>
<rect x="14" y="29" width="10" height="10" rx="2" fill="#73B4D9"/>
<rect x="28" y="29" width="10" height="10" rx="2" fill="#65254D"/>
<rect x="42" y="29" width="10" height="10" rx="2" fill="#4836FD"/>
<rect x="56" y="29" width="10" height="10" rx="2" fill="#BF8E72"/>
<rect x="70" y="29" width="10" height="10" rx="2" fill="#B139B7"/>
<rect x="84" y="29" width="10" height="10" rx="2" fill="#B7DF23"/>
<rect x="98" y="29" width="10" height="10" rx="2" fill="#53464C"/>
<rect x="112" y="29" width="10" height="10" rx="2" fill="#C5E868"/>
<rect x="126" y="29" width="10" height="10" rx="2" fill="#8E6698"/>
<rect x="140" y="29" width="10" height="10" rx="2" fill="#C1B900"/>
<rect x="154" y="29" width="10" height="10" rx="2" fill="#ACEA39"/>
<rect y="59" width="10" height="10" rx="2" fill="#F49BB2"/>
<rect x="14" y="59" width="10" height="10" rx="2" fill="#1FDD0D"/>
<rect x="28" y="59" width="10" height="10" rx="2" fill="#31C562"/>
<rect x="42" y="59" width="10" height="10" rx="2" fill="#0C1E9B"/>
<rect x="56" y="59" width="10" height="10" rx="2" fill="#779B93"/>
<rect x="70" y="59" width="10" height="10" rx="2" fill="#10B915"/>
<rect x="84" y="59" width="10" height="10" rx="2" fill="#A16833"/>
<rect x="98" y="59" width="10" height="10" rx="2" fill="#8352AD"/>
<rect x="112" y="59" width="10" height="10" rx="2" fill="#F01B59"/>
<rect x="126" y="59" width="10" height="10" rx="2" fill="#55D635"/>
<rect x="140" y="59" width="10" height="10" rx="2" fill="#5FDEC2"/>
<rect x="154" y="59" width="10" height="10" rx="2" fill="#8D13BF"/>
<rect x="168" y="59" width="10" height="10" rx="2" fill="#67BF3D"/>
<rect x="182" y="59" width="10" height="10" rx="2" fill="#66718E"/>
<path d="M207.966 36V35.274H209.094V32.466H209.04L208.188 33.582L207.612 33.132L208.614 31.812H209.994V35.274H210.882V36H207.966ZM214.306 36H211.342V35.178L212.632 34.074C212.748 33.974 212.846 33.884 212.926 33.804C213.006 33.72 213.07 33.64 213.118 33.564C213.17 33.484 213.206 33.406 213.226 33.33C213.25 33.254 213.262 33.172 213.262 33.084V33C213.262 32.92 213.246 32.85 213.214 32.79C213.182 32.73 213.14 32.68 213.088 32.64C213.036 32.6 212.976 32.57 212.908 32.55C212.844 32.53 212.778 32.52 212.71 32.52C212.61 32.52 212.522 32.536 212.446 32.568C212.374 32.6 212.31 32.644 212.254 32.7C212.202 32.752 212.158 32.814 212.122 32.886C212.086 32.954 212.058 33.028 212.038 33.108L211.252 32.808C211.3 32.664 211.366 32.528 211.45 32.4C211.534 32.268 211.638 32.154 211.762 32.058C211.89 31.958 212.04 31.88 212.212 31.824C212.384 31.768 212.578 31.74 212.794 31.74C213.022 31.74 213.224 31.772 213.4 31.836C213.576 31.9 213.724 31.988 213.844 32.1C213.968 32.212 214.062 32.346 214.126 32.502C214.19 32.654 214.222 32.82 214.222 33C214.222 33.18 214.192 33.344 214.132 33.492C214.072 33.64 213.99 33.78 213.886 33.912C213.786 34.04 213.668 34.162 213.532 34.278C213.396 34.394 213.254 34.512 213.106 34.632L212.326 35.244H214.306V36Z" fill="black"/>
<path d="M190.758 1.08C191.982 1.08 192.768 1.494 192.768 2.166C192.768 2.838 191.982 3.246 190.758 3.246C189.534 3.246 188.748 2.838 188.748 2.166C188.748 1.494 189.534 1.08 190.758 1.08ZM190.758 1.698C189.996 1.698 189.57 1.848 189.57 2.166C189.57 2.478 189.996 2.634 190.758 2.634C191.514 2.634 191.946 2.478 191.946 2.166C191.946 1.848 191.514 1.698 190.758 1.698ZM188.826 4.578H192.666V6.474H188.826V4.578ZM191.886 5.208H189.612V5.844H191.886V5.208ZM188.244 3.564H193.266V4.194H188.244V3.564ZM193.769 5.232H198.797V5.886H193.769V5.232ZM195.857 3.996H196.649V5.406H195.857V3.996ZM195.827 1.284H196.523V1.686C196.523 2.868 195.665 3.912 194.213 4.176L193.883 3.51C195.149 3.306 195.827 2.454 195.827 1.686V1.284ZM195.983 1.284H196.679V1.686C196.679 2.472 197.357 3.306 198.629 3.51L198.299 4.176C196.841 3.906 195.983 2.886 195.983 1.686V1.284ZM202.057 1.404H202.705V2.214C202.705 3.642 202.213 4.932 201.109 5.442L200.635 4.782C201.601 4.362 202.057 3.294 202.057 2.214V1.404ZM202.213 1.404H202.861V2.214C202.861 3.24 203.299 4.26 204.247 4.668L203.779 5.31C202.705 4.818 202.213 3.582 202.213 2.214V1.404ZM204.511 0.972H205.315V6.546H204.511V0.972ZM206.634 1.236H208.992V1.866H206.634V1.236ZM208.614 1.236H209.4V1.698C209.4 2.208 209.4 2.784 209.22 3.552L208.44 3.486C208.614 2.742 208.614 2.196 208.614 1.698V1.236ZM209.088 2.256V2.82L206.622 3L206.526 2.358L209.088 2.256ZM207.666 3.87H208.464V5.082H207.666V3.87ZM210.102 0.978H210.9V5.22H210.102V0.978ZM206.898 5.802H211.026V6.438H206.898V5.802ZM206.898 4.824H207.696V6.012H206.898V4.824ZM206.298 4.116L206.202 3.48C207.228 3.474 208.584 3.45 209.736 3.312L209.784 3.882C208.62 4.062 207.306 4.11 206.298 4.116ZM209.052 4.254H210.276V4.806H209.052V4.254ZM213.804 1.296H214.5V1.698C214.5 2.904 213.642 3.972 212.202 4.254L211.86 3.594C213.114 3.378 213.804 2.496 213.804 1.698V1.296ZM213.966 1.296H214.656V1.698C214.656 2.514 215.34 3.378 216.6 3.594L216.258 4.254C214.818 3.972 213.966 2.922 213.966 1.698V1.296ZM211.746 5.208H216.774V5.856H211.746V5.208ZM219.048 1.344C219.924 1.344 220.578 1.914 220.578 2.712C220.578 3.516 219.924 4.086 219.048 4.086C218.178 4.086 217.512 3.516 217.512 2.712C217.512 1.914 218.178 1.344 219.048 1.344ZM219.048 2.028C218.622 2.028 218.298 2.28 218.298 2.712C218.298 3.15 218.622 3.402 219.048 3.402C219.474 3.402 219.798 3.15 219.798 2.712C219.798 2.28 219.474 2.028 219.048 2.028ZM221.1 0.972H221.898V6.546H221.1V0.972ZM217.38 5.418L217.284 4.776C218.262 4.776 219.624 4.764 220.794 4.59L220.854 5.166C219.648 5.406 218.34 5.418 217.38 5.418ZM228.013 0.978H228.817V3.768H228.013V0.978ZM226.267 1.182H227.143C227.143 2.706 226.309 3.528 224.557 3.882L224.281 3.24C225.763 2.976 226.267 2.376 226.267 1.638V1.182ZM224.575 1.182H226.831V1.818H224.575V1.182ZM225.109 3.996H228.817V5.502H225.919V6.108H225.121V4.932H228.013V4.608H225.109V3.996ZM225.121 5.862H228.955V6.48H225.121V5.862ZM233.527 0.972H234.331V6.546H233.527V0.972ZM231.337 1.362C232.177 1.362 232.795 2.13 232.795 3.342C232.795 4.566 232.177 5.334 231.337 5.334C230.497 5.334 229.879 4.566 229.879 3.342C229.879 2.13 230.497 1.362 231.337 1.362ZM231.337 2.088C230.923 2.088 230.641 2.526 230.641 3.342C230.641 4.17 230.923 4.614 231.337 4.614C231.751 4.614 232.027 4.17 232.027 3.342C232.027 2.526 231.751 2.088 231.337 2.088Z" fill="black"/>
<path d="M76.2462 1.08C77.4702 1.08 78.2562 1.494 78.2562 2.166C78.2562 2.838 77.4702 3.246 76.2462 3.246C75.0222 3.246 74.2362 2.838 74.2362 2.166C74.2362 1.494 75.0222 1.08 76.2462 1.08ZM76.2462 1.698C75.4842 1.698 75.0582 1.848 75.0582 2.166C75.0582 2.478 75.4842 2.634 76.2462 2.634C77.0022 2.634 77.4342 2.478 77.4342 2.166C77.4342 1.848 77.0022 1.698 76.2462 1.698ZM74.3142 4.578H78.1542V6.474H74.3142V4.578ZM77.3742 5.208H75.1002V5.844H77.3742V5.208ZM73.7322 3.564H78.7542V4.194H73.7322V3.564ZM79.2577 5.232H84.2857V5.886H79.2577V5.232ZM81.3457 3.996H82.1377V5.406H81.3457V3.996ZM81.3157 1.284H82.0117V1.686C82.0117 2.868 81.1537 3.912 79.7017 4.176L79.3717 3.51C80.6377 3.306 81.3157 2.454 81.3157 1.686V1.284ZM81.4717 1.284H82.1677V1.686C82.1677 2.472 82.8457 3.306 84.1177 3.51L83.7877 4.176C82.3297 3.906 81.4717 2.886 81.4717 1.686V1.284ZM87.5452 1.404H88.1932V2.214C88.1932 3.642 87.7012 4.932 86.5972 5.442L86.1232 4.782C87.0892 4.362 87.5452 3.294 87.5452 2.214V1.404ZM87.7012 1.404H88.3492V2.214C88.3492 3.24 88.7872 4.26 89.7352 4.668L89.2672 5.31C88.1932 4.818 87.7012 3.582 87.7012 2.214V1.404ZM89.9992 0.972H90.8032V6.546H89.9992V0.972ZM92.1228 1.236H94.4808V1.866H92.1228V1.236ZM94.1028 1.236H94.8888V1.698C94.8888 2.208 94.8888 2.784 94.7088 3.552L93.9288 3.486C94.1028 2.742 94.1028 2.196 94.1028 1.698V1.236ZM94.5768 2.256V2.82L92.1108 3L92.0148 2.358L94.5768 2.256ZM93.1548 3.87H93.9528V5.082H93.1548V3.87ZM95.5908 0.978H96.3888V5.22H95.5908V0.978ZM92.3868 5.802H96.5148V6.438H92.3868V5.802ZM92.3868 4.824H93.1848V6.012H92.3868V4.824ZM91.7868 4.116L91.6908 3.48C92.7168 3.474 94.0728 3.45 95.2248 3.312L95.2728 3.882C94.1088 4.062 92.7948 4.11 91.7868 4.116ZM94.5408 4.254H95.7648V4.806H94.5408V4.254ZM99.2923 1.296H99.9883V1.698C99.9883 2.904 99.1303 3.972 97.6903 4.254L97.3483 3.594C98.6023 3.378 99.2923 2.496 99.2923 1.698V1.296ZM99.4543 1.296H100.144V1.698C100.144 2.514 100.828 3.378 102.088 3.594L101.746 4.254C100.306 3.972 99.4543 2.922 99.4543 1.698V1.296ZM97.2343 5.208H102.262V5.856H97.2343V5.208Z" fill="black"/>
<path d="M207.966 66V65.274H209.094V62.466H209.04L208.188 63.582L207.612 63.132L208.614 61.812H209.994V65.274H210.882V66H207.966ZM213.022 66V65.196H211.18V64.428L212.812 61.812H213.88V64.5H214.408V65.196H213.88V66H213.022ZM211.9 64.5H213.022V62.742H212.962L211.9 64.5Z" fill="black"/>
<path d="M212.549 93.402C212.549 93.698 212.503 93.976 212.411 94.236C212.323 94.496 212.207 94.738 212.063 94.962C211.923 95.182 211.763 95.38 211.583 95.556C211.407 95.732 211.229 95.88 211.049 96H209.807C210.063 95.816 210.293 95.642 210.497 95.478C210.701 95.31 210.877 95.142 211.025 94.974C211.177 94.806 211.301 94.636 211.397 94.464C211.493 94.288 211.563 94.1 211.607 93.9L211.553 93.882C211.517 93.962 211.473 94.04 211.421 94.116C211.373 94.192 211.311 94.26 211.235 94.32C211.163 94.376 211.077 94.422 210.977 94.458C210.877 94.494 210.761 94.512 210.629 94.512C210.457 94.512 210.295 94.482 210.143 94.422C209.995 94.358 209.865 94.27 209.753 94.158C209.645 94.046 209.559 93.91 209.495 93.75C209.435 93.59 209.405 93.41 209.405 93.21C209.405 92.994 209.441 92.796 209.513 92.616C209.589 92.436 209.695 92.282 209.831 92.154C209.971 92.022 210.137 91.92 210.329 91.848C210.521 91.776 210.737 91.74 210.977 91.74C211.225 91.74 211.447 91.78 211.643 91.86C211.839 91.936 212.003 92.048 212.135 92.196C212.271 92.34 212.373 92.514 212.441 92.718C212.513 92.922 212.549 93.15 212.549 93.402ZM210.977 93.822C211.177 93.822 211.333 93.768 211.445 93.66C211.557 93.548 211.613 93.39 211.613 93.186V93.078C211.613 92.874 211.557 92.718 211.445 92.61C211.333 92.498 211.177 92.442 210.977 92.442C210.777 92.442 210.621 92.498 210.509 92.61C210.397 92.718 210.341 92.874 210.341 93.078V93.186C210.341 93.39 210.397 93.548 210.509 93.66C210.621 93.768 210.777 93.822 210.977 93.822Z" fill="black"/>
<path d="M207.966 126V125.274H209.094V122.466H209.04L208.188 123.582L207.612 123.132L208.614 121.812H209.994V125.274H210.882V126H207.966ZM211.564 126V125.274H212.692V122.466H212.638L211.786 123.582L211.21 123.132L212.212 121.812H213.592V125.274H214.48V126H211.564Z" fill="black"/>
</svg>
